<svg version="1.1" id="Layer_1" xmlns="http://www.w3.org/2000/svg" xmlns:xlink="http://www.w3.org/1999/xlink" x="0px" y="0px"
	 width="100%" viewBox="0 0 922 461" enable-background="new 0 0 922 461" xml:space="preserve">
<path fill="#523209" opacity="1.000000" stroke="none" 
	d="
M404.279297,314.466583 
	C402.916016,314.681671 401.859161,314.738373 400.415039,314.699341 
	C390.981842,313.718170 381.916138,313.335602 372.416931,313.691711 
	C368.975403,313.868469 365.944580,313.886017 362.467834,313.816528 
	C358.916107,312.435822 355.741730,312.904541 352.271790,313.538513 
	C351.539917,313.768829 351.104065,313.822388 350.346130,313.796021 
	C345.596588,312.373016 341.114105,312.976898 336.307404,313.517609 
	C325.280609,314.068024 314.602142,313.509491 303.468994,312.994629 
	C301.606049,311.706665 299.903412,312.054138 298.284088,312.000885 
	C296.804779,311.952209 295.293182,312.170532 293.850555,311.871765 
	C291.326355,311.348999 287.891418,311.145416 287.766876,307.993927 
	C287.637268,304.712769 291.068817,304.395660 293.603638,303.895874 
	C296.177032,303.388458 298.853729,303.372253 301.609131,301.951477 
	C302.668213,301.406921 303.406250,301.145844 304.598083,301.098694 
	C306.641022,301.040741 308.293610,300.981262 310.359528,300.914154 
	C314.464691,297.984009 310.770325,296.466522 309.323578,294.230560 
	C309.097107,293.982727 308.889191,293.648346 308.891052,293.451477 
	C307.295502,290.520477 308.448303,286.745758 305.314514,284.234619 
	C304.420776,282.530426 303.790588,281.084747 303.176544,279.292328 
	C302.935150,277.446808 303.160645,275.825623 301.938232,274.234833 
	C300.860596,273.191650 300.947693,272.109070 300.866638,270.696320 
	C299.923248,265.405212 299.264923,260.439362 297.515564,255.318466 
	C297.240967,254.528915 297.144043,254.093155 297.060089,253.321854 
	C297.006775,252.157761 297.032440,251.316269 296.590210,250.240280 
	C296.329620,248.891174 296.205719,247.823120 296.131348,246.353271 
	C296.207245,237.652649 294.762115,229.432388 294.963928,221.113358 
	C295.113007,214.968567 297.068176,209.062531 297.127869,202.481216 
	C297.261658,200.854507 297.337341,199.666336 297.669312,198.227493 
	C300.511780,195.547440 299.312408,191.920517 300.731842,188.724609 
	C300.679352,188.012894 300.719116,187.709808 300.956573,187.210312 
	C301.356873,186.693649 301.610687,186.352112 301.768066,185.659973 
	C301.658691,185.022690 301.701141,184.715942 301.962341,184.219299 
	C306.523621,173.262146 313.713867,163.964859 318.419006,152.958069 
	C318.483826,152.600357 318.575317,152.600250 318.560913,152.556839 
	C323.297699,151.197906 325.957031,148.172150 327.060272,143.279846 
	C328.046631,138.905930 332.093567,136.052292 336.354248,136.391830 
	C336.638641,136.963516 336.707001,137.213699 336.784973,137.854065 
	C335.457428,142.982330 332.161652,146.667206 329.903168,150.913177 
	C319.353455,170.746857 314.740265,191.895569 314.225403,214.267181 
	C313.561462,243.116165 321.747711,269.427063 335.593079,294.307922 
	C336.450684,295.849091 336.960846,297.755981 338.859222,298.326752 
	C339.379761,298.322876 339.756744,298.070404 339.643951,297.729218 
	C337.356750,290.812927 340.847839,287.525024 346.529175,283.980591 
	C365.916718,271.885193 383.071228,257.202545 394.676575,237.061630 
	C405.097321,218.976578 405.248871,200.364029 396.786560,181.487213 
	C395.501343,178.620285 393.519531,176.034927 393.272278,172.371323 
	C393.510437,171.459229 393.824677,171.042282 394.655518,170.612823 
	C397.069122,170.588150 398.321716,172.000656 399.628143,173.263916 
	C418.217651,191.239380 426.467773,216.059952 415.597015,242.134232 
	C413.508057,247.144791 413.868866,247.528168 419.067383,247.669678 
	C427.252441,247.892471 435.351532,247.312866 443.438507,245.905640 
	C447.702911,245.163574 450.035522,243.292435 451.531677,239.086792 
	C455.583160,227.698166 461.700043,217.396835 469.566711,208.177963 
	C470.864990,206.656494 472.273407,205.229614 473.813538,203.948792 
	C475.121979,202.860596 476.725372,201.614777 478.288025,202.739563 
	C480.152557,204.081665 478.546722,205.791214 477.867401,207.155807 
	C470.175598,222.606522 463.967468,238.536179 462.078979,255.856186 
	C460.552002,269.861176 460.697113,283.781952 464.573181,297.272827 
	C464.535919,297.821747 464.689758,297.712189 464.624542,297.194489 
	C463.340546,287.005951 463.355347,287.061554 472.994232,283.328369 
	C488.189392,277.443237 502.486694,269.805847 514.483398,258.734863 
	C527.588806,246.640823 535.238281,231.573364 535.645996,213.369324 
	C535.813416,205.893188 535.668396,198.416016 535.338013,190.592651 
	C535.699341,190.053268 535.889160,189.871567 536.459717,189.595612 
	C540.011719,190.272644 540.402649,193.179428 541.338867,195.558594 
	C546.588623,208.899109 547.848938,222.538651 543.813599,237.022736 
	C552.107117,228.497955 559.371277,219.924149 565.748047,210.606766 
	C566.961670,208.833496 568.125732,206.992676 570.341431,205.669495 
	C574.232483,206.672806 572.613953,208.825500 571.531006,210.571884 
	C569.440735,213.942795 567.197571,217.240723 564.862854,220.431976 
	C560.902832,225.844727 556.387878,230.871445 555.423157,237.615829 
	C557.552917,236.340149 556.558960,233.417725 557.678284,231.406464 
	C558.784607,229.418549 559.487061,226.793198 562.507568,227.262253 
	C565.349182,227.703522 565.162231,230.222687 565.532410,232.663757 
	C565.625366,233.445602 565.617737,233.891266 565.563538,234.668076 
	C565.125366,236.915421 565.527466,238.632187 566.834534,240.104507 
	C574.413330,248.641861 578.886108,259.106628 584.636047,268.778809 
	C584.976929,269.352142 585.376160,269.930481 585.500793,270.571838 
	C586.369873,275.042145 587.138489,277.100433 593.443542,275.917603 
	C604.691467,273.807404 614.871643,283.200439 616.286865,294.611877 
	C616.491882,296.265289 616.619507,297.927643 617.653076,299.719727 
	C617.873779,300.007019 618.161255,300.123413 618.161743,300.278442 
	C619.351501,303.295197 621.474976,304.757019 624.593994,304.796204 
	C625.408020,304.806396 626.229187,304.971924 626.996277,305.251770 
	C628.358704,305.748718 630.011475,306.059875 630.289978,307.792175 
	C630.570557,309.537323 629.093079,310.318848 627.924805,311.187836 
	C627.115723,311.789673 626.133301,311.956085 624.816895,312.305786 
	C624.195496,312.423950 623.942932,312.437744 623.323486,312.368713 
	C617.354248,310.161682 611.981323,311.968170 606.282349,313.457031 
	C582.628357,313.791229 559.269226,313.910095 535.447998,313.939819 
	C525.906067,312.820496 516.856079,313.922363 507.383484,314.388611 
	C487.962524,314.626129 468.953064,314.706512 449.485291,314.694153 
	C438.619720,313.422638 428.193756,314.015961 417.372559,314.446747 
	C415.595062,314.681763 414.216339,314.741669 412.432037,314.710571 
	C409.585205,313.583923 407.087494,313.897491 404.279297,314.466583 
z"/>
<path fill="#51330C" opacity="1.000000" stroke="none" 
	d="
M426.752533,44.399719 
	C427.006989,44.176544 427.206848,43.859787 427.394104,43.856091 
	C429.360382,43.324360 431.086243,42.688686 432.704712,41.142475 
	C432.909027,40.862846 432.957184,40.974384 432.910889,40.935081 
	C436.270233,39.372082 439.787872,38.044254 442.723877,35.072517 
	C443.324188,34.475895 443.735809,34.175331 444.420166,33.877857 
	C448.864685,32.974537 452.511780,30.733109 455.518188,28.026293 
	C460.478302,23.560474 465.152405,24.632267 470.152069,27.372332 
	C471.168152,27.929180 472.067017,28.716196 473.636139,28.942749 
	C474.564789,29.147749 475.114319,29.333759 475.830444,29.766245 
	C476.741882,30.841946 477.725098,31.282059 479.040710,31.777687 
	C479.351471,31.868439 479.738342,31.860744 479.876282,31.996435 
	C480.259430,32.327034 480.507812,32.517883 480.963501,32.820694 
	C481.700012,33.093136 482.232239,33.249550 482.902039,33.652969 
	C489.612152,38.930889 496.918182,42.830345 504.128174,46.760853 
	C509.753540,49.827503 515.077026,53.627808 521.669312,55.407497 
	C522.383606,55.195072 522.763367,55.066769 523.443237,54.919525 
	C527.763184,51.164303 532.045654,47.696190 535.665039,43.080261 
	C535.829041,42.776829 535.928040,42.911659 535.856934,42.867683 
	C539.248962,42.094563 543.147888,39.628887 545.069824,45.565605 
	C545.068909,46.259956 545.041809,46.535286 544.906921,47.207672 
	C544.590759,48.103653 544.317261,48.563652 543.709167,49.266571 
	C542.670288,50.227718 541.772705,50.665970 540.440796,51.022224 
	C535.835938,51.847225 533.484741,54.478729 532.689514,58.957253 
	C532.828552,61.040798 532.029053,62.467712 530.953308,64.151794 
	C529.013611,66.529030 528.705200,68.770287 530.228760,71.477455 
	C530.575256,72.190750 530.689514,72.627556 530.754395,73.418617 
	C530.527832,75.082016 530.906433,76.455971 530.234253,78.030380 
	C529.565247,78.619659 529.042603,78.858307 528.686401,79.315849 
	C529.202087,79.675125 529.282166,78.989388 529.917480,78.757355 
	C533.393555,80.094917 533.907227,82.261589 531.768311,85.833374 
	C529.809631,89.104080 527.136108,92.083641 524.284180,94.255035 
	C519.867188,97.618004 519.237488,102.254250 517.827026,107.184799 
	C517.671875,108.676399 517.183167,109.589729 515.938232,110.468460 
	C511.310791,110.908669 511.640076,107.781418 511.843262,105.204720 
	C512.220215,100.424545 513.040894,95.698273 515.709229,91.108292 
	C516.147278,89.474007 516.863220,88.425346 517.804199,87.093163 
	C518.408203,86.220779 518.917236,85.767532 519.878052,85.442017 
	C520.608459,85.280510 521.126221,85.736992 521.329407,85.012863 
	C520.666992,84.344315 520.130432,83.875435 519.359863,83.193100 
	C518.088745,81.477379 516.856873,80.237625 514.658386,79.771904 
	C513.407166,79.131653 513.010925,78.107658 512.046021,77.215561 
	C511.507111,76.802406 511.211029,76.554565 510.720673,76.097359 
	C510.254211,75.635551 509.987091,75.376122 509.495728,74.954971 
	C509.129578,74.679024 508.981689,74.570892 508.608093,74.310188 
	C507.895721,73.882545 507.375549,73.719635 506.518005,73.672325 
	C505.580170,73.560104 505.041656,73.266945 504.378479,72.553383 
	C502.837982,69.383423 499.878815,69.159966 497.063141,68.061569 
	C496.550079,67.847404 496.351898,67.750786 495.878571,67.480301 
	C494.796356,66.596329 493.863403,66.172768 492.473999,66.024994 
	C491.948334,65.938057 491.738190,65.895882 491.215942,65.771362 
	C490.488037,65.566139 490.071289,65.446632 489.330505,65.259682 
	C487.462463,64.843994 485.981903,64.362770 484.606079,62.964096 
	C483.625854,61.434116 482.619415,60.467403 480.770599,60.156906 
	C480.270355,60.045124 480.071564,59.995907 479.580719,59.855072 
	C478.910492,59.621868 478.535065,59.473415 477.882172,59.213989 
	C477.043732,58.896027 476.510742,58.632843 475.786316,58.109650 
	C475.124512,57.524300 474.700378,57.115555 473.985596,56.576416 
	C473.577759,56.261154 473.415588,56.127369 473.012390,55.779617 
	C471.550171,54.553001 470.263885,53.685837 468.258545,53.710281 
	C466.592682,53.821861 465.500153,53.234871 464.223083,52.338524 
	C463.447479,51.962372 462.922699,51.950249 462.153076,52.417221 
	C453.303070,57.174828 445.239655,62.721153 435.971466,66.737213 
	C432.242584,66.732880 429.864929,68.888557 427.058289,70.860291 
	C426.671021,71.281303 426.510132,71.445763 426.084961,71.835587 
	C420.597565,74.600243 415.280884,76.984329 410.441254,80.218933 
	C408.125366,81.766777 406.109406,83.705757 409.557739,86.663834 
	C409.104553,89.597549 407.946808,92.185867 411.447052,93.982140 
	C412.965240,94.761261 413.207489,96.667412 411.762817,98.525238 
	C406.287811,99.985771 401.012390,98.295891 395.814972,99.306145 
	C394.062134,99.646858 392.183685,99.141762 390.119873,100.080307 
	C389.117096,100.654755 388.390289,100.886909 387.292847,101.184952 
	C386.459381,101.403297 385.984161,101.521622 385.158813,101.733948 
	C384.111176,102.001381 383.400482,102.092537 382.337830,102.190559 
	C378.982666,102.086243 376.087555,102.280640 373.793610,105.183304 
	C370.872742,107.742470 367.579529,108.955025 364.150024,110.607178 
	C362.822266,111.067551 361.720978,111.189545 360.601837,112.111092 
	C360.153076,112.413681 359.964661,112.522430 359.471375,112.749634 
	C356.840118,113.332336 354.489105,113.693184 351.959717,114.654030 
	C349.749115,115.732758 347.978729,116.856964 346.689514,119.052704 
	C346.215546,119.656578 345.902527,119.964287 345.287354,120.429428 
	C342.476074,121.431465 340.711334,123.572815 337.951050,124.631592 
	C325.252014,134.507874 312.901184,144.341110 300.038574,153.509201 
	C298.803680,154.389404 296.397186,155.139282 297.501343,157.116653 
	C298.594086,159.073624 300.450348,157.128342 301.953430,156.891678 
	C302.882568,156.745392 303.721191,155.984970 305.380737,156.672867 
	C302.249207,162.216995 299.199890,167.588745 296.182739,172.978516 
	C295.534790,174.136032 294.655731,175.307938 294.473145,176.559311 
	C293.101990,185.955841 287.041473,187.734375 278.813049,186.818787 
	C274.703461,186.361511 270.490326,186.653397 266.335327,186.848053 
	C263.423920,186.984451 262.118958,186.160599 262.167633,182.969040 
	C262.332520,172.149078 262.266785,161.325531 262.276550,150.503342 
	C262.278900,147.922180 263.448486,146.334930 265.744659,144.991409 
	C280.945770,136.096893 296.025848,126.995682 311.216309,118.082672 
	C314.130280,116.372871 315.297089,114.304901 315.275360,110.853905 
	C315.138885,89.206757 315.317139,67.557457 315.143829,45.910851 
	C315.111938,41.923275 316.297974,40.823711 320.227295,40.914295 
	C331.378510,41.171379 342.541656,41.124027 353.695496,40.930618 
	C357.267944,40.868671 358.273956,42.145027 358.226379,45.563618 
	C358.064301,57.218079 358.143066,68.876152 358.177612,80.532700 
	C358.181396,81.807137 357.576202,83.414764 358.836914,84.278603 
	C360.309631,85.287712 361.174744,83.572922 362.204193,82.953781 
	C379.859711,72.334877 397.485809,61.667076 415.463898,50.967457 
	C416.730652,50.447224 417.748444,50.149349 418.775269,49.233688 
	C418.998718,49.015209 419.002716,48.993889 419.012726,48.998535 
	C421.606689,47.700367 424.566589,47.039158 426.752533,44.399719 
z"/>
<path fill="#52340E" opacity="1.000000" stroke="none" 
	d="
M625.803406,198.035675 
	C625.682983,225.325760 625.564209,252.122101 625.419983,278.918304 
	C625.418518,279.189331 625.080994,279.458527 624.385071,280.499176 
	C621.368286,277.264404 618.719360,273.873932 615.522461,271.119537 
	C610.138428,266.480621 603.943359,263.303772 596.596497,263.293304 
	C594.543945,263.290375 593.721069,262.451782 593.095520,260.606049 
	C590.397400,252.644669 586.251221,245.483017 580.592346,239.251251 
	C578.777954,237.253159 578.432251,235.522446 580.000793,233.073975 
	C588.934082,219.128967 593.483765,203.598663 596.014526,187.398224 
	C596.671814,183.190765 598.127258,180.505112 602.841675,179.121643 
	C622.159241,173.452805 638.928711,163.326157 652.982849,148.810547 
	C654.212891,147.540131 655.549377,145.743729 657.609924,146.589767 
	C659.777527,147.479782 659.987000,149.852158 659.772034,151.732880 
	C658.575256,162.202576 659.750061,172.684860 659.520630,183.157913 
	C659.447144,186.514938 658.536499,187.056717 655.650269,187.010666 
	C647.661621,186.883209 639.653870,187.277786 631.684265,186.869232 
	C626.726807,186.615051 625.079041,188.362259 625.772339,193.052155 
	C625.988953,194.518265 625.804382,196.043686 625.803406,198.035675 
z"/>
<path fill="#543614" opacity="1.000000" stroke="none" 
	d="
M337.078613,390.052460 
	C334.084808,381.715149 331.248688,373.735229 328.234863,365.255310 
	C326.509064,366.950867 327.019775,368.337097 327.017548,369.520874 
	C326.989349,384.512146 326.911835,399.504913 327.111359,414.493835 
	C327.158142,418.011688 326.500366,419.904236 322.579010,419.332581 
	C321.611481,419.191559 320.583557,419.374847 319.593506,419.493561 
	C315.086151,420.034088 313.190125,418.674011 313.254242,413.535797 
	C313.543121,390.385895 313.447266,367.229675 313.287354,344.077118 
	C313.261261,340.302979 314.021454,338.552094 318.199402,338.953033 
	C322.649750,339.380096 327.897369,337.846161 331.424469,339.733368 
	C334.841461,341.561707 334.629303,347.351898 336.045959,351.381531 
	C340.989288,365.442566 345.715393,379.580048 350.660278,393.640533 
	C351.083496,394.843903 350.687927,397.082428 352.814087,397.067474 
	C354.729309,397.054047 354.829041,395.081360 355.308502,393.759705 
	C361.408325,376.944946 367.538696,360.140320 373.455688,343.261047 
	C374.583313,340.044342 376.178131,338.987305 379.585907,339.030884 
	C392.865814,339.200684 392.823242,339.075562 392.848450,352.443329 
	C392.886749,372.765015 392.863159,393.088531 393.175415,413.406494 
	C393.242004,417.739105 392.240143,419.287109 387.708588,419.139709 
	C379.094971,418.859589 378.960388,419.107422 378.920746,410.452667 
	C378.859863,397.152313 377.831940,383.849762 378.962799,370.546814 
	C379.062958,369.368835 379.711975,367.459900 377.949554,367.174194 
	C376.132904,366.879700 376.363495,368.976562 375.952576,370.075958 
	C370.326904,385.127960 364.695221,400.178802 359.260040,415.300018 
	C358.135071,418.429810 356.275299,419.268005 353.240387,419.138245 
	C350.366730,419.015381 347.858459,419.327148 346.599243,415.573792 
	C343.754120,407.093262 340.389526,398.787018 337.078613,390.052460 
z"/>
<path fill="#543613" opacity="1.000000" stroke="none" 
	d="
M700.392944,339.532471 
	C712.316650,339.459686 723.796509,338.239807 735.182007,340.810974 
	C747.160583,343.516052 754.261230,353.159790 752.784363,365.323975 
	C752.152100,370.531464 749.742188,374.709625 745.130920,377.556122 
	C743.630920,378.482056 741.590881,378.676819 740.400085,381.109741 
	C752.122559,386.494476 753.233521,397.274323 753.750244,408.356995 
	C753.819153,409.835480 754.097595,411.320648 754.431641,412.767426 
	C755.871948,419.004822 755.892639,419.000061 749.183655,418.997925 
	C740.907288,418.995300 738.821106,417.205566 738.030029,409.117188 
	C737.706360,405.807800 737.726929,402.466278 737.500732,399.145538 
	C737.045837,392.467773 733.463379,388.623688 726.814636,387.579193 
	C710.585144,385.029572 710.584106,385.029572 710.638367,401.214233 
	C710.653442,405.710266 710.554626,410.211243 710.737671,414.700592 
	C710.864197,417.805573 709.969360,419.102600 706.549500,419.145233 
	C696.004333,419.276611 695.988403,419.422760 695.986633,408.892822 
	C695.983032,387.245117 696.052246,365.597198 695.949829,343.950012 
	C695.935486,340.923187 696.460144,339.085999 700.392944,339.532471 
z"/>
<path fill="#503310" opacity="1.000000" stroke="none" 
	d="
M169.256104,412.919495 
	C169.868973,417.754150 168.667923,419.595062 163.633484,419.264008 
	C154.002747,418.630646 153.988892,418.984619 153.993576,409.432098 
	C154.004211,387.780304 154.110962,366.127563 153.913284,344.477631 
	C153.876770,340.478668 154.994766,339.387848 158.939606,339.442688 
	C169.257965,339.586151 169.261765,339.397827 169.247437,349.654144 
	C169.238373,356.149719 169.351456,362.649078 169.159073,369.139282 
	C169.066757,372.253204 170.260132,373.172668 173.238495,373.109680 
	C181.063309,372.944214 188.896362,372.889099 196.719681,373.069977 
	C199.813141,373.141541 200.315262,371.735687 200.285477,369.164642 
	C200.188995,360.837891 200.389679,352.504456 200.131729,344.184296 
	C200.013321,340.364563 200.949814,338.891846 205.111008,338.981384 
	C215.226456,339.199005 215.235229,338.982941 215.232574,349.335083 
	C215.227036,370.987091 215.136414,392.639679 215.286438,414.290588 
	C215.311798,417.950043 214.402527,419.186127 210.571518,419.139923 
	C200.291687,419.015900 200.300278,419.200806 200.340820,408.951416 
	C200.367828,402.122986 200.267288,395.292542 200.406372,388.466736 
	C200.470062,385.341217 199.496582,383.947174 196.127060,384.040771 
	C188.637604,384.248810 181.138367,384.230560 173.645432,384.130524 
	C170.156708,384.083923 169.072678,385.525055 169.169724,388.947479 
	C169.391556,396.769501 169.250244,404.601807 169.256104,412.919495 
z"/>
<path fill="#543513" opacity="1.000000" stroke="none" 
	d="
M544.645996,48.452606 
	C544.871460,42.089085 540.492493,42.932892 536.246704,42.876606 
	C554.211792,29.618790 576.531189,36.486046 584.186157,57.918713 
	C585.436951,61.420479 587.054321,62.311913 590.727783,62.909378 
	C603.677734,65.015594 614.812683,70.625832 621.372864,82.749001 
	C622.671387,85.148720 623.966980,86.155396 626.687439,86.070473 
	C632.679993,85.883400 638.710876,86.386925 644.675293,85.935837 
	C659.944519,84.780983 664.373901,99.104568 658.171265,109.762520 
	C656.212524,113.128197 654.775757,116.480476 653.956238,120.281021 
	C649.645630,140.270676 636.449402,152.969620 619.008850,161.911575 
	C611.468872,165.777435 603.463867,168.742462 595.155823,170.402603 
	C590.804749,171.272049 588.653137,173.160019 588.250488,177.761307 
	C587.053589,177.416718 586.706421,176.369034 586.161682,174.982971 
	C585.716003,171.582397 584.102722,169.805267 581.099182,169.159500 
	C580.003784,168.923996 578.684326,168.461670 578.752075,166.990112 
	C578.831726,165.258286 580.347900,164.885559 581.636475,164.853088 
	C591.953674,164.593216 601.529907,161.267639 611.467407,157.817596 
	C612.763611,157.541153 614.102295,157.843475 614.438843,156.779099 
	C614.876526,155.394989 613.383240,155.441330 612.588562,155.079208 
	C611.494080,154.580490 610.510803,154.050751 610.517395,152.311646 
	C612.312439,149.322815 615.205322,148.301620 617.741394,146.772629 
	C630.653259,138.988281 641.125854,129.269943 643.996826,113.171722 
	C644.683960,110.834129 643.238586,109.722191 642.139893,108.570923 
	C639.711731,106.026558 637.270813,103.647614 638.250183,99.538849 
	C638.791504,97.267654 636.770081,97.360451 635.323730,97.336845 
	C630.532654,97.258644 625.740234,97.307625 620.575195,97.300049 
	C619.439514,97.260880 618.693542,97.132492 617.611389,96.749954 
	C616.824036,96.302673 616.476257,95.931580 616.037231,95.141731 
	C615.645935,94.347694 615.439636,93.887543 615.070801,93.089371 
	C607.363770,79.159813 595.892883,72.485603 580.287964,73.060257 
	C577.898987,73.148224 575.442322,73.256538 575.162964,69.525299 
	C576.518127,62.660606 573.423706,57.634098 568.940857,53.836456 
	C562.986389,48.792053 556.147217,45.416775 547.899109,48.475632 
	C546.966125,48.821629 545.963196,48.922085 544.645996,48.452606 
z"/>
<path fill="#553817" opacity="1.000000" stroke="none" 
	d="
M572.634216,401.984924 
	C571.961121,406.366852 573.446411,407.647705 577.471130,407.517365 
	C586.787842,407.215668 596.128113,407.638580 605.444519,407.331818 
	C610.459656,407.166656 609.800842,410.286804 609.540588,413.206421 
	C609.296692,415.942535 610.988098,419.611786 605.243408,419.433746 
	C590.768250,418.985138 576.270081,419.119171 561.784302,419.288239 
	C558.316528,419.328705 557.238464,418.453766 557.264099,414.896088 
	C557.434814,391.248138 557.455750,367.598297 557.340515,343.949951 
	C557.322693,340.287994 558.321838,339.022552 562.123901,339.078766 
	C576.443665,339.290497 590.771057,339.345215 605.089294,339.097626 
	C609.780518,339.016510 610.610474,341.006958 610.575989,345.078613 
	C610.541992,349.086121 609.852295,351.148407 605.088501,350.960175 
	C595.777039,350.592285 586.438049,350.983185 577.114563,350.823547 
	C573.425476,350.760376 571.984802,352.014282 572.291260,355.780884 
	C572.641602,360.088074 572.722290,364.435822 572.598694,368.756744 
	C572.507385,371.946350 573.514099,373.172241 576.868469,373.078552 
	C584.356445,372.869415 591.867126,373.301208 599.344971,372.958008 
	C604.621887,372.715881 603.616699,376.077576 603.838989,379.157013 
	C604.080200,382.499390 603.568481,384.365631 599.389160,384.165283 
	C591.745483,383.798920 584.068542,384.186646 576.412781,383.984375 
	C573.269348,383.901337 572.411804,384.948517 572.595520,388.000366 
	C572.865234,392.479614 572.649902,396.988037 572.634216,401.984924 
z"/>
<path fill="#543715" opacity="1.000000" stroke="none" 
	d="
M462.181274,339.857422 
	C463.893494,350.852173 463.893494,350.851532 453.469818,350.849945 
	C445.810089,350.848785 438.146332,350.994904 430.492371,350.784729 
	C426.953247,350.687531 425.749573,351.950806 425.950836,355.417755 
	C426.191711,359.567108 426.285675,363.761414 425.955566,367.897339 
	C425.620422,372.096283 427.490204,373.027802 431.228943,372.908081 
	C438.714996,372.668396 446.225677,373.016388 453.698456,372.610779 
	C458.190430,372.366943 458.595062,374.583710 458.366974,378.022675 
	C458.165436,381.061798 459.281677,384.435547 453.903961,384.143372 
	C446.267059,383.728485 438.586029,384.199615 430.932465,383.985382 
	C427.357574,383.885315 425.734497,384.794922 425.975555,388.694061 
	C426.272949,393.504944 426.188446,398.352478 426.014526,403.174957 
	C425.896301,406.453400 427.189941,407.552429 430.415039,407.498932 
	C439.737488,407.344238 449.068604,407.601166 458.386658,407.344727 
	C462.475677,407.232208 464.079468,408.259827 463.593140,412.659698 
	C462.817566,419.676147 463.059570,419.567352 455.866699,419.445984 
	C442.548981,419.221191 429.227875,419.066345 415.909210,419.122253 
	C412.501068,419.136536 411.273834,418.213409 411.286896,414.664215 
	C411.373810,391.020630 411.286285,367.376282 411.207764,343.732361 
	C411.199890,341.365112 411.259766,339.357178 414.430054,339.362244 
	C430.225677,339.387482 446.024445,338.683716 462.181274,339.857422 
z"/>
<path fill="#523412" opacity="1.000000" stroke="none" 
	d="
M623.875305,419.090149 
	C615.737183,419.094238 615.763672,419.103729 618.356079,411.883575 
	C626.583069,388.970398 634.861755,366.075195 642.924561,343.104279 
	C644.156738,339.593811 646.406372,338.963470 649.420288,339.237732 
	C652.612793,339.528259 656.287048,337.808960 658.060303,342.783630 
	C666.512329,366.494385 675.191528,390.125458 683.989380,413.710480 
	C685.596313,418.018341 684.721802,419.526642 680.193237,419.016022 
	C678.878845,418.867798 677.502747,418.825104 676.206421,419.041931 
	C672.358337,419.685577 670.273438,417.956329 669.375610,414.360809 
	C669.216492,413.723419 668.852905,413.139709 668.619690,412.517792 
	C664.733887,402.157196 664.735168,402.156525 653.804016,402.210297 
	C651.640015,402.220947 649.475952,402.239258 647.311951,402.244781 
	C635.038269,402.276062 634.770020,402.199860 631.526428,413.761200 
	C630.340515,417.987885 628.559021,419.767853 623.875305,419.090149 
z"/>
<path fill="#E7932D" opacity="1.000000" stroke="none" 
	d="
M501.798035,389.000793 
	C501.768951,397.661102 501.572998,405.825104 501.759094,413.980408 
	C501.855774,418.218384 500.486633,420.146820 496.028931,419.860229 
	C490.055908,419.476227 484.058777,419.271271 478.074951,419.324585 
	C474.514252,419.356323 473.705444,417.933350 473.728027,414.576599 
	C473.864685,394.258911 473.783081,373.939728 473.770386,353.621063 
	C473.769165,351.622620 473.838562,349.617828 473.708893,347.626801 
	C473.063110,337.709717 473.074005,339.306213 482.053894,339.208282 
	C487.049805,339.153778 492.054718,339.345428 497.040222,339.106384 
	C500.780304,338.927032 501.943359,340.348938 501.898285,344.044739 
	C501.717499,358.861694 501.802734,373.681885 501.798035,389.000793 
z"/>
<path fill="#51330F" opacity="1.000000" stroke="none" 
	d="
M296.112854,404.885681 
	C289.558441,419.094513 276.649963,423.356598 261.795868,421.767700 
	C254.389771,420.975494 247.056061,419.436890 240.294937,416.035400 
	C235.890900,413.819733 232.122589,410.901428 230.084534,406.205017 
	C228.554459,402.679199 229.270874,399.525635 232.213791,397.233002 
	C238.500793,392.335266 245.551086,389.958008 253.633881,391.488342 
	C261.123077,392.906281 268.424683,392.792206 275.466644,389.211517 
	C278.714264,387.560181 282.317841,386.416840 286.048004,386.964264 
	C296.186646,388.452209 299.473755,394.227814 296.112854,404.885681 
z"/>
<path fill="#533615" opacity="1.000000" stroke="none" 
	d="
M508.487732,383.946289 
	C504.405945,381.285645 505.868347,377.405212 506.431091,374.338531 
	C506.971680,371.392609 510.380249,372.816833 512.513733,372.793518 
	C522.296021,372.686676 527.091919,367.686707 525.442505,359.067352 
	C524.357910,353.399750 521.306458,350.887573 515.437744,350.834930 
	C514.605530,350.827484 513.773193,350.834442 512.940918,350.834869 
	C506.051727,350.838287 504.154785,348.378296 505.663208,341.578461 
	C506.005890,340.033600 506.707123,339.153168 508.307434,339.225220 
	C514.609009,339.508820 520.939758,339.506836 527.050659,341.462677 
	C540.981018,345.921204 545.572327,365.777191 533.912048,374.905029 
	C531.471191,376.815735 530.832581,378.217804 534.134338,379.805176 
	C546.858398,385.922607 547.896606,406.713043 531.300598,415.848450 
	C523.863953,419.941986 515.795471,418.949829 507.890656,419.412079 
	C506.356567,419.501770 505.473511,418.502350 505.445831,416.880585 
	C505.411804,414.885437 505.317993,412.890930 505.308075,410.895874 
	C505.295807,408.427155 506.466675,407.321533 509.026672,407.440399 
	C512.015869,407.579163 515.020142,407.535614 518.012817,407.428619 
	C524.890076,407.182800 528.831970,402.939819 528.861938,395.868073 
	C528.892639,388.623199 525.206665,384.364319 518.409363,384.007202 
	C515.262085,383.841827 512.099121,383.972717 508.487732,383.946289 
z"/>
<path fill="#51361B" opacity="1.000000" stroke="none" 
	d="
M303.182800,301.673309 
	C301.338287,305.234985 298.130646,304.588135 295.343292,304.991180 
	C292.802399,305.358612 288.820190,305.069458 288.775085,307.819305 
	C288.731354,310.486755 292.839874,310.315338 295.285614,310.954468 
	C297.742065,311.596405 300.575348,309.931305 302.914825,312.506470 
	C274.302155,313.489380 245.843735,310.858521 216.621521,306.919342 
	C220.226974,303.772430 220.218796,303.685181 231.168457,302.658691 
	C236.123688,302.194214 241.118759,302.154907 246.559113,301.992798 
	C250.789825,301.774628 254.587738,302.400055 258.677307,301.511719 
	C263.713806,301.218109 268.413818,301.097351 273.578094,301.046997 
	C276.155914,300.874329 278.290314,301.176941 280.711212,300.800140 
	C288.035583,299.826141 295.070831,300.301666 302.531464,300.597321 
	C303.094299,300.977600 303.226318,301.172363 303.182800,301.673309 
z"/>
<path fill="#4C2F0F" opacity="1.000000" stroke="none" 
	d="
M623.759766,312.200928 
	C625.924255,310.807220 627.841187,309.618134 630.005432,308.275635 
	C627.803284,306.288177 625.595215,305.849915 623.306702,306.031830 
	C619.786072,306.311676 617.961853,304.935730 618.124084,300.866791 
	C626.047302,301.426392 633.975403,301.000122 641.885620,301.142700 
	C651.632996,301.318390 661.381226,301.446686 671.565552,301.772644 
	C672.440491,301.976379 672.879028,302.001495 673.646545,302.045044 
	C684.243347,302.274353 694.592834,301.417297 704.756287,304.977661 
	C693.393982,309.297150 681.330505,309.342560 669.001221,310.219543 
	C666.987183,310.624634 665.335022,310.420074 663.356140,310.742554 
	C660.570435,311.200714 658.137817,311.453766 655.304199,311.629486 
	C653.135071,311.450714 651.366760,311.448608 649.304077,311.694641 
	C647.309814,311.999176 645.609863,312.150940 643.488220,312.233826 
	C641.554077,311.988861 640.041138,311.800934 638.267090,312.477814 
	C633.631348,312.738403 629.281067,312.841705 624.471069,312.877441 
	C623.844910,312.675079 623.678528,312.540314 623.759766,312.200928 
z"/>
<path fill="#513616" opacity="1.000000" stroke="none" 
	d="
M259.574921,329.173248 
	C265.467377,331.235168 266.712921,339.576416 264.481842,345.359375 
	C263.530670,347.824860 261.162842,348.176056 259.692383,346.466949 
	C255.686584,341.811127 252.751678,344.516907 249.742371,347.429169 
	C248.556137,348.577148 247.642609,350.001343 246.519363,351.221008 
	C242.553925,355.526672 238.901688,354.704559 236.944962,349.097748 
	C235.318634,344.437622 237.173050,336.837585 241.257614,333.651917 
	C246.483688,329.575867 252.296722,326.970825 259.574921,329.173248 
z"/>
<path fill="#503310" opacity="1.000000" stroke="none" 
	d="
M586.558228,174.962036 
	C587.892639,175.508499 587.980469,176.419739 588.010132,177.712708 
	C584.841003,195.892059 580.836182,213.424286 569.598938,228.298248 
	C568.503052,229.748734 567.300171,231.118286 565.889954,232.762680 
	C565.207825,232.764267 564.652527,232.628510 564.380798,232.274918 
	C563.399170,230.997787 564.951904,228.037231 562.000977,228.164291 
	C559.293335,228.280869 559.359375,231.234039 558.345459,232.912155 
	C557.479797,234.344910 557.772461,236.433853 557.313049,238.169067 
	C556.916138,239.668396 555.639160,240.090561 554.162842,239.963409 
	C553.305237,239.889542 552.449524,239.760651 552.247803,238.764359 
	C551.966980,237.377411 552.856018,236.559097 553.942139,236.048782 
	C557.656799,234.303467 555.328003,230.109604 557.767029,227.382950 
	C562.665955,221.906235 566.571899,215.543945 570.928101,209.576660 
	C571.651611,208.585602 572.292969,207.683456 571.315552,206.227020 
	C569.964478,204.928207 570.540771,203.843979 571.160156,202.866425 
	C576.410522,194.580063 580.980713,185.945343 584.639282,176.835464 
	C584.950623,176.060272 585.435852,175.383789 586.558228,174.962036 
z"/>
<path fill="#513616" opacity="1.000000" stroke="none" 
	d="
M295.011169,385.370392 
	C288.447174,384.072388 286.845245,382.124878 286.880005,375.981689 
	C286.906219,371.351074 288.655182,366.878021 288.088318,362.187958 
	C287.891724,360.561249 288.669373,359.882141 290.393677,359.832245 
	C295.239197,359.691864 301.821075,365.952393 302.753387,371.752930 
	C303.867004,378.681396 301.183960,383.642822 295.011169,385.370392 
z"/>
<path fill="#513616" opacity="1.000000" stroke="none" 
	d="
M240.870209,379.835205 
	C240.074127,384.306976 238.543839,387.788391 233.684387,387.645660 
	C230.215927,387.543732 227.005707,382.927429 226.825333,378.480927 
	C226.526459,371.114349 230.674698,366.040314 235.736496,361.537476 
	C238.037064,359.490936 239.662750,360.549011 240.454330,363.241943 
	C242.027206,368.592743 242.554535,373.982483 240.870209,379.835205 
z"/>
<path fill="#53381A" opacity="1.000000" stroke="none" 
	d="
M267.938568,359.915802 
	C268.282776,357.178192 268.410431,354.829376 269.007141,352.606537 
	C270.422485,347.334290 273.355103,346.408142 277.788330,349.645386 
	C283.680481,353.948090 285.325165,364.906342 280.896881,370.859497 
	C278.725403,373.778748 276.006958,373.310028 273.466553,371.489868 
	C269.705780,368.795258 267.852600,365.028931 267.938568,359.915802 
z"/>
<path fill="#513616" opacity="1.000000" stroke="none" 
	d="
M262.507507,360.319458 
	C260.818298,365.490417 258.271973,369.610748 254.589966,373.159058 
	C251.736053,375.909332 249.810287,375.537598 248.005814,372.282379 
	C244.811066,366.519287 246.894821,356.395966 252.031296,352.288788 
	C254.374390,350.415253 257.091675,350.164001 259.511200,351.268127 
	C263.201538,352.952209 262.907867,356.548950 262.507507,360.319458 
z"/>
<path fill="#503310" opacity="1.000000" stroke="none" 
	d="
M617.874634,299.567596 
	C614.862061,299.171570 615.150757,296.670105 614.993164,294.363464 
	C614.440002,286.264709 609.135864,280.366333 601.244385,278.847198 
	C599.142883,278.442688 597.080139,277.745605 595.068909,276.996582 
	C593.750793,276.505707 592.969910,276.306244 591.617493,277.451965 
	C588.594299,280.013092 586.391663,279.009827 585.170593,275.144287 
	C582.482666,266.635406 578.209167,258.966064 573.260742,251.543488 
	C570.542603,247.466263 568.092712,243.296478 564.624695,239.755142 
	C563.531860,238.639191 563.429382,236.672424 565.191772,235.115662 
	C573.487122,247.021286 581.744568,258.872650 587.511963,272.198639 
	C588.171387,273.722443 588.744629,275.283295 591.045532,274.852478 
	C607.513428,271.769409 619.326599,285.454498 617.874634,299.567596 
z"/>
<path fill="#543D23" opacity="1.000000" stroke="none" 
	d="
M344.700287,120.238281 
	C345.149139,119.770569 345.327942,119.495796 345.733276,119.114388 
	C347.380951,117.385506 349.282227,116.261436 350.799103,114.277252 
	C353.542542,112.456566 356.340057,111.949142 359.700134,112.091904 
	C360.312012,114.800858 357.920135,115.465958 356.453369,116.830177 
	C353.963013,119.146439 351.497253,121.483238 349.088257,124.354111 
	C345.709320,127.153671 343.386566,130.453583 340.613983,133.768509 
	C340.317993,134.199005 340.204529,134.371460 339.918579,134.794510 
	C339.521576,135.373077 339.301025,135.703720 338.934143,136.287323 
	C338.667297,136.693039 338.551147,136.848740 338.210632,137.189499 
	C337.627197,137.529602 337.252228,137.601685 336.592834,137.485992 
	C333.155853,136.467438 328.770935,140.242477 327.976013,144.568924 
	C327.019318,149.775894 324.087616,152.563034 318.946899,152.642776 
	C324.138092,142.474411 331.787201,134.071777 339.915161,125.583229 
	C340.764496,122.957321 342.612030,121.707352 344.700287,120.238281 
z"/>
<path fill="#543513" opacity="1.000000" stroke="none" 
	d="
M521.699829,55.134689 
	C518.844604,57.620468 516.159546,54.859840 514.147949,53.690365 
	C504.167389,47.888191 493.748535,42.801159 484.309326,36.086811 
	C483.810486,35.731976 483.506134,35.103687 483.075378,34.251331 
	C495.824921,40.915310 508.610321,47.930656 521.699829,55.134689 
z"/>
<path fill="#543D23" opacity="1.000000" stroke="none" 
	d="
M296.946869,202.356964 
	C299.447083,205.298645 297.396973,208.598145 296.838135,211.639435 
	C295.066345,221.282089 296.907959,230.803772 296.969757,240.372421 
	C296.980438,242.023682 296.802490,243.676147 296.446289,245.639771 
	C293.791779,234.164536 294.261230,222.314682 295.467224,210.459503 
	C295.732849,207.848373 296.286652,205.266556 296.946869,202.356964 
z"/>
<path fill="#543D23" opacity="1.000000" stroke="none" 
	d="
M318.232178,152.806458 
	C318.940155,156.789505 317.101471,160.771149 314.860657,163.525848 
	C310.129395,169.342178 307.494537,176.102585 304.123993,182.550125 
	C303.844482,183.084824 303.228424,183.443558 302.424255,183.949707 
	C305.745880,172.842972 311.520294,162.751907 318.232178,152.806458 
z"/>
<path fill="#543513" opacity="1.000000" stroke="none" 
	d="
M473.799316,28.702379 
	C472.505646,30.772743 471.143799,29.171635 470.138275,28.491926 
	C463.981384,24.330013 458.278320,25.796980 453.759949,30.632608 
	C451.229523,33.340679 448.571472,33.576534 445.121368,33.912796 
	C449.579071,29.824894 455.434448,27.313442 460.679321,23.834488 
	C462.749451,22.461369 464.389954,23.246019 466.185059,24.314861 
	C468.610626,25.759052 471.113617,27.073124 473.799316,28.702379 
z"/>
<path fill="#51361B" opacity="1.000000" stroke="none" 
	d="
M417.434570,314.723572 
	C417.321777,313.173035 418.417236,313.003723 419.658813,313.006042 
	C428.789215,313.023224 437.919708,313.010956 447.049774,313.069458 
	C447.619476,313.073120 448.185822,313.596191 448.890320,314.239502 
	C438.649780,314.676056 428.272552,314.750702 417.434570,314.723572 
z"/>
<path fill="#4C2F0F" opacity="1.000000" stroke="none" 
	d="
M606.445251,313.760925 
	C606.128723,313.039642 606.177429,311.894226 606.424805,311.849579 
	C611.855103,310.869324 617.250183,308.346313 622.918457,311.599854 
	C621.676453,312.873474 620.009399,312.348480 618.303833,313.083923 
	C614.370667,314.672272 610.607788,313.808044 606.445251,313.760925 
z"/>
<path fill="#51361B" opacity="1.000000" stroke="none" 
	d="
M372.457458,313.965546 
	C381.257080,312.450317 390.506500,312.410828 399.891052,314.241577 
	C390.974640,315.124969 381.945770,314.389099 372.457458,313.965546 
z"/>
<path fill="#543513" opacity="1.000000" stroke="none" 
	d="
M535.492920,42.853203 
	C536.038940,44.105728 536.196167,45.660095 534.971924,46.383430 
	C531.031921,48.711456 528.728943,53.015930 524.105286,54.904243 
	C526.695251,50.097336 530.550110,46.155060 535.492920,42.853203 
z"/>
<path fill="#51361B" opacity="1.000000" stroke="none" 
	d="
M507.421997,314.649658 
	C507.358521,313.116974 508.471619,312.988434 509.688049,313.004425 
	C517.910156,313.112579 526.132385,313.212860 534.670288,313.583191 
	C525.947937,314.151642 516.909973,314.452606 507.421997,314.649658 
z"/>
<path fill="#543D23" opacity="1.000000" stroke="none" 
	d="
M297.239136,255.367508 
	C301.127655,259.117920 301.139160,264.221313 300.919250,269.839539 
	C298.739838,265.690552 298.088623,260.692261 297.239136,255.367508 
z"/>
<path fill="#51361B" opacity="1.000000" stroke="none" 
	d="
M336.433716,313.797058 
	C340.420044,310.456696 345.105042,311.828186 349.901184,313.345581 
	C345.646423,313.776276 341.268768,313.836548 336.433716,313.797058 
z"/>
<path fill="#543D23" opacity="1.000000" stroke="none" 
	d="
M305.061005,284.354858 
	C311.417450,284.403809 308.138458,289.331390 308.924713,292.801086 
	C306.819672,290.772797 305.782867,287.826080 305.061005,284.354858 
z"/>
<path fill="#543513" opacity="1.000000" stroke="none" 
	d="
M442.561646,34.851692 
	C441.420898,39.219051 437.870789,40.582821 433.263245,40.928513 
	C435.463165,38.096970 439.115417,36.947987 442.561646,34.851692 
z"/>
<path fill="#543D23" opacity="1.000000" stroke="none" 
	d="
M258.566895,301.246552 
	C255.536682,304.635681 251.452698,302.554688 247.316986,302.344177 
	C250.666122,301.082062 254.396820,301.164124 258.566895,301.246552 
z"/>
<path fill="#543D23" opacity="1.000000" stroke="none" 
	d="
M300.453491,188.593384 
	C300.331726,191.572311 302.954041,195.454681 298.322235,197.933411 
	C297.816559,194.726181 299.519531,191.921616 300.453491,188.593384 
z"/>
<path fill="#543D23" opacity="1.000000" stroke="none" 
	d="
M309.096924,294.346985 
	C314.488068,296.605835 315.029846,298.162140 311.140747,300.908203 
	C311.433472,298.511566 309.935760,296.700470 309.096924,294.346985 
z"/>
<path fill="#51361B" opacity="1.000000" stroke="none" 
	d="
M352.424927,313.806213 
	C355.034302,310.542633 358.412750,311.762909 361.907196,313.364868 
	C358.972626,313.785431 355.923340,313.841339 352.424927,313.806213 
z"/>
<path fill="#D6CABE" opacity="1.000000" stroke="none" 
	d="
M344.604309,119.987213 
	C344.066467,122.188820 342.504395,123.779243 340.396729,125.211746 
	C339.702179,125.169189 339.292023,125.065056 338.258911,124.838898 
	C339.652893,122.867355 341.231079,120.412895 344.604309,119.987213 
z"/>
<path fill="#543513" opacity="1.000000" stroke="none" 
	d="
M426.672424,44.234573 
	C426.014008,47.893917 423.179382,48.864414 419.408142,49.007965 
	C421.077087,46.836624 423.900055,45.863659 426.672424,44.234573 
z"/>
<path fill="#51361B" opacity="1.000000" stroke="none" 
	d="
M404.411377,314.725677 
	C406.342316,311.745728 409.066772,312.858643 411.907013,314.274780 
	C409.634277,314.688507 407.242065,314.757446 404.411377,314.725677 
z"/>
<path fill="#543D23" opacity="1.000000" stroke="none" 
	d="
M280.635681,300.595886 
	C279.142792,303.008484 276.784393,301.843506 274.300232,301.372040 
	C276.111755,300.900177 278.181122,300.682922 280.635681,300.595886 
z"/>
<path fill="#543D23" opacity="1.000000" stroke="none" 
	d="
M301.778137,274.266052 
	C304.982513,274.389984 303.952820,276.578003 303.427612,278.703827 
	C302.713623,277.496704 302.234558,276.047760 301.778137,274.266052 
z"/>
<path fill="#51361B" opacity="1.000000" stroke="none" 
	d="
M638.347290,312.723083 
	C639.038391,310.071411 640.864319,310.933716 642.855103,311.876740 
	C641.615356,312.380341 640.164185,312.595703 638.347290,312.723083 
z"/>
<path fill="#543513" opacity="1.000000" stroke="none" 
	d="
M432.563995,40.904167 
	C432.612732,43.678516 430.487915,43.790421 427.980286,43.889313 
	C428.731506,42.252140 430.588104,41.778896 432.563995,40.904167 
z"/>
<path fill="#51361B" opacity="1.000000" stroke="none" 
	d="
M618.341980,313.236511 
	C619.035461,311.308380 620.821594,312.243073 622.653015,311.994476 
	C623.009766,311.990326 623.508423,311.994537 623.757874,311.995422 
	C624.007324,311.996338 624.010681,312.403107 624.010986,312.606506 
	C622.242310,312.984650 620.473267,313.159424 618.341980,313.236511 
z"/>
<path fill="#51361B" opacity="1.000000" stroke="none" 
	d="
M649.429565,311.917175 
	C650.628967,310.427307 652.503723,311.025269 654.612427,311.363342 
	C653.218567,311.697113 651.533997,311.842041 649.429565,311.917175 
z"/>
<path fill="#543D23" opacity="1.000000" stroke="none" 
	d="
M296.349976,250.275024 
	C298.004700,250.362518 298.260223,251.296234 297.309418,252.806702 
	C296.268311,252.370438 296.250732,251.482910 296.349976,250.275024 
z"/>
<path fill="#543513" opacity="1.000000" stroke="none" 
	d="
M418.676758,49.044655 
	C418.906799,50.580009 417.944336,51.046009 416.176880,50.942318 
	C416.657867,50.307968 417.506317,49.691036 418.676758,49.044655 
z"/>
<path fill="#51361B" opacity="1.000000" stroke="none" 
	d="
M663.405823,311.025696 
	C664.351807,309.482391 666.103821,310.131836 668.149414,310.093109 
	C667.152283,311.254700 665.434326,310.951172 663.405823,311.025696 
z"/>
<path fill="#543513" opacity="1.000000" stroke="none" 
	d="
M479.167816,31.591522 
	C478.134705,31.907024 476.785065,32.326309 476.065369,30.378962 
	C476.992767,30.446672 477.988464,30.880638 479.167816,31.591522 
z"/>
<path fill="#543D23" opacity="1.000000" stroke="none" 
	d="
M303.296753,301.971466 
	C303.004364,301.713379 302.992584,301.447632 302.967133,300.982544 
	C303.489014,300.782806 304.015747,300.782776 304.765442,300.941528 
	C304.521027,301.387970 304.053589,301.675690 303.296753,301.971466 
z"/>
<path fill="#503310" opacity="1.000000" stroke="none" 
	d="
M673.749634,301.928192 
	C673.506836,302.896515 672.943848,303.161926 672.102417,302.155212 
	C672.509277,301.897064 673.016602,301.844299 673.749634,301.928192 
z"/>
<path fill="#543D23" opacity="1.000000" stroke="none" 
	d="
M301.457703,185.543030 
	C301.651886,185.751144 301.586243,186.158844 301.288971,186.783875 
	C301.104187,186.581665 301.151062,186.162140 301.457703,185.543030 
z"/>
<path fill="#543513" opacity="1.000000" stroke="none" 
	d="
M481.057770,32.699444 
	C480.824066,32.916389 480.530640,32.784401 480.150818,32.336433 
	C480.325378,32.242138 480.636597,32.352154 481.057770,32.699444 
z"/>
<path fill="#E78F28" opacity="1.000000" stroke="none" 
	d="
M586.958069,174.553986 
	C582.613892,185.586945 577.622437,195.841492 571.101929,205.665039 
	C563.711487,215.370987 557.128967,225.342941 548.745911,233.886917 
	C547.150208,235.513199 545.923035,237.500992 543.514954,238.920578 
	C546.496033,221.790192 545.377319,205.684601 537.379639,190.154343 
	C536.857361,189.725510 536.644226,189.483322 536.425049,189.244995 
	C535.954285,188.733292 536.076843,187.854309 535.339539,187.515732 
	C535.792786,188.039520 535.870117,188.677963 535.872070,189.668396 
	C537.470276,202.096405 538.310913,214.185150 535.400574,226.214783 
	C530.322327,247.205414 516.593323,261.305359 498.746063,272.106110 
	C489.462494,277.724365 479.872101,282.767792 469.460724,285.906769 
	C465.544647,287.087433 464.400940,289.056244 465.296173,292.757324 
	C465.962189,295.510864 466.294586,298.300446 465.936005,301.189331 
	C460.275421,297.635895 458.008698,269.670258 461.191406,251.093460 
	C464.096954,234.134552 470.229797,218.347549 478.700989,203.296967 
	C475.615265,202.321320 474.549622,204.753815 473.237976,206.176987 
	C463.647156,216.583038 456.313568,228.408127 451.971924,241.912842 
	C451.010712,244.902649 449.470551,246.080887 446.585602,246.697357 
	C436.421814,248.869263 426.144226,249.226242 415.807251,249.296097 
	C411.638153,249.324265 411.464722,247.932602 413.005157,244.592941 
	C420.494812,228.355377 421.571198,211.921844 413.926819,195.383270 
	C409.602020,186.026581 403.287567,178.138184 395.480804,170.987061 
	C393.473785,170.021698 392.417572,168.468002 390.941071,167.018463 
	C390.677887,166.770798 390.709076,166.557999 390.691345,166.811646 
	C391.747162,168.537415 392.841980,169.936859 393.625977,171.910736 
	C399.932129,183.637039 404.405762,195.467575 404.096710,208.770187 
	C403.736115,224.293427 397.734589,237.557358 388.210083,249.359543 
	C375.753326,264.795135 360.953583,277.601379 343.605743,287.311188 
	C339.927521,289.369934 339.189697,291.913940 340.832947,295.545319 
	C341.616486,297.276825 343.328125,299.345673 340.443085,300.563965 
	C337.976501,301.605438 336.950531,299.403412 335.904358,297.711548 
	C327.961761,284.866486 322.382233,270.984528 318.306305,256.511841 
	C308.590851,222.014267 311.187775,188.374527 325.925232,155.713943 
	C328.664032,149.644318 331.985352,143.862198 336.226868,138.237579 
	C336.780212,137.677094 337.135925,137.466766 337.741730,137.101532 
	C337.937897,136.855347 337.956940,136.954407 337.906494,136.954239 
	C338.437683,136.614212 338.503998,136.002869 338.806580,135.178650 
	C338.957520,134.920807 338.980713,134.994247 338.946533,134.976532 
	C343.099731,131.355408 346.339355,126.810104 350.843140,122.980873 
	C377.625885,103.234390 406.357758,100.424721 437.248901,111.402328 
	C441.604614,113.128609 444.839905,116.241386 449.406281,117.331238 
	C450.185699,117.241829 450.632080,117.248444 451.395996,117.403442 
	C452.006470,117.682045 452.230408,117.917412 452.386658,118.209122 
	C452.541687,118.498581 452.532349,118.383026 452.190216,117.560654 
	C450.965607,115.612991 449.887970,113.972260 451.079346,111.632996 
	C452.596222,110.754288 453.939117,110.619225 455.261169,110.705910 
	C474.877075,111.992027 491.561249,104.123627 507.535797,94.020317 
	C507.816742,93.842613 508.104248,93.675552 508.764679,93.358871 
	C510.181183,92.890526 511.227631,92.882210 512.606873,93.392433 
	C514.629944,96.129028 513.286133,98.906532 512.692200,101.163071 
	C511.270447,106.564827 512.493347,111.525764 513.505371,117.318153 
	C514.164307,114.540947 514.207092,112.328995 515.782837,110.261253 
	C516.357788,109.229507 516.698914,108.454643 517.066162,107.361710 
	C521.125549,97.214546 527.001282,88.943657 536.258728,83.412994 
	C534.243164,80.997978 531.180054,78.475533 531.113037,73.870575 
	C531.989807,70.802681 533.177368,68.277710 534.580444,65.817993 
	C544.857117,47.802639 568.439331,50.665043 575.762695,68.251076 
	C575.853271,71.462593 577.172058,72.185623 579.967834,71.834892 
	C594.354675,70.030006 609.998901,78.967934 616.516357,92.764946 
	C616.681641,93.106606 616.508789,93.525902 616.734863,93.543785 
	C617.113403,94.082123 617.265991,94.602570 617.579956,95.496246 
	C619.331909,102.269119 624.532227,100.456657 629.180786,100.757332 
	C631.642273,100.966736 633.330994,102.012779 634.670898,103.514854 
	C637.660583,106.866440 641.460144,109.247780 644.950989,112.519897 
	C644.011414,125.359604 636.697388,134.085480 627.615662,141.762390 
	C622.759888,145.867020 617.023621,148.509003 611.243591,151.743546 
	C610.005249,153.254547 608.327209,153.045227 606.645935,153.923340 
	C608.971985,154.626343 611.063904,154.693558 613.073669,155.136612 
	C616.426086,155.875656 615.084106,157.227463 613.003052,158.627502 
	C602.000610,162.671570 591.328979,166.661377 578.470947,166.154999 
	C582.003662,169.267059 589.173401,167.133759 586.958069,174.553986 
z"/>
<path fill="#F8F7F6" opacity="1.000000" stroke="none" 
	d="
M409.908661,284.007263 
	C403.324249,278.755829 396.305298,275.923096 387.453400,276.195892 
	C391.949799,271.455780 396.419434,266.689728 400.967407,261.999634 
	C401.779297,261.162384 402.942688,260.684998 404.158295,261.388855 
	C405.411041,262.114288 406.391388,263.295380 405.868866,264.664459 
	C404.399628,268.513977 406.781616,270.050446 409.513245,271.684204 
	C417.915222,276.709229 423.783630,284.066589 428.110321,292.682709 
	C429.063660,294.581238 431.814209,296.989899 428.690399,299.028381 
	C425.929901,300.829773 419.952271,298.960449 418.843536,296.254822 
	C416.907990,291.531464 413.986877,287.584961 409.908661,284.007263 
z"/>
<path fill="#F7F6F5" opacity="1.000000" stroke="none" 
	d="
M516.878540,276.903717 
	C523.449097,271.916779 523.428406,271.933777 528.401978,277.981445 
	C532.880432,283.427094 536.012207,289.667755 538.922913,296.007629 
	C539.576843,297.431915 540.981201,299.632416 538.899658,300.868561 
	C537.155090,301.904602 535.288879,300.579956 534.002991,299.294495 
	C532.490662,297.782684 531.280640,295.964905 529.966614,294.258942 
	C525.714966,288.739075 521.120178,283.802612 513.318237,284.069550 
	C512.338806,284.103088 511.186432,284.117310 510.872131,282.888794 
	C510.585449,281.768524 511.407593,281.024811 512.194336,280.403381 
	C513.628723,279.270355 515.108765,278.195007 516.878540,276.903717 
z"/>
<path fill="#814C11" opacity="1.000000" stroke="none" 
	d="
M389.996155,166.361130 
	C392.366760,166.549911 393.713715,168.329041 395.113098,170.478439 
	C394.851898,171.077255 394.492645,171.361191 393.946564,171.937286 
	C391.771454,170.886810 390.488861,169.064651 389.996155,166.361130 
z"/>
<path fill="#814C11" opacity="1.000000" stroke="none" 
	d="
M536.174316,189.992889 
	C534.628174,188.454010 533.745239,186.819061 534.467834,184.629745 
	C536.241394,185.748764 536.675171,187.472000 537.128723,189.545898 
	C536.926941,189.927734 536.712585,189.954742 536.174316,189.992889 
z"/>
<path fill="#CA9E70" opacity="1.000000" stroke="none" 
	d="
M337.652466,136.883575 
	C337.614227,137.199905 337.290558,137.544464 336.722473,137.933609 
	C336.478088,137.978195 336.364410,137.689102 336.344391,137.535400 
	C336.671906,137.225067 337.019470,137.068436 337.652466,136.883575 
z"/>
<path fill="#FCFCFB" opacity="1.000000" stroke="none" 
	d="
M504.750000,71.747818 
	C505.455048,72.348068 505.905396,72.709053 506.649292,73.109390 
	C507.559753,73.086548 508.122925,73.222069 508.810669,73.832840 
	C509.002319,74.061440 509.204132,74.274811 509.339050,74.216858 
	C509.915619,74.176994 510.291290,74.347832 510.769043,74.928207 
	C510.947327,75.530502 511.090820,75.784218 511.576660,76.022156 
	C513.447998,78.420197 511.477875,79.594513 510.006378,80.260056 
	C496.532379,86.354362 483.378967,93.221870 469.050720,97.285088 
	C463.829376,98.765747 458.834961,97.858162 453.419250,96.452698 
	C452.504578,96.310715 451.988068,96.202835 451.100403,95.952499 
	C442.865234,93.212242 434.874908,91.068977 426.399231,89.236191 
	C424.281586,88.688309 422.524017,88.311287 420.359192,87.974121 
	C417.262390,87.177666 414.437531,87.049667 411.718048,86.354607 
	C410.162262,85.956963 408.024597,86.070244 407.645172,84.192581 
	C407.225800,82.117386 409.095764,81.009491 410.699127,80.144051 
	C415.045288,77.798119 419.036011,74.823387 423.596252,72.862946 
	C424.357300,72.535767 425.125183,72.242813 426.089508,71.524597 
	C426.469025,71.424332 426.276947,71.507118 426.380859,71.495178 
	C428.430634,68.709877 431.823853,68.103706 434.717102,66.191940 
	C443.924072,61.314236 452.778473,56.465450 461.822632,51.329655 
	C462.387177,50.687748 462.832153,50.527077 463.671204,50.742126 
	C465.101776,51.623081 466.208282,52.321831 467.642151,53.049137 
	C470.123016,53.241066 471.811890,54.418976 473.686829,55.893539 
	C473.878143,56.178841 473.940521,56.053307 473.885315,56.096504 
	C474.393250,56.392166 475.003326,56.506588 475.746094,56.989330 
	C476.353729,57.522873 476.790527,57.800365 477.501526,58.082394 
	C478.076416,58.200706 478.347015,58.364246 478.789520,58.703438 
	C478.991547,58.829327 479.363983,59.058117 479.582245,59.069168 
	C481.373627,59.879536 483.083801,60.411438 484.769958,61.702492 
	C486.325012,62.627552 487.621399,63.344936 489.237000,64.107399 
	C489.932892,64.189278 490.269165,64.325638 490.780304,64.737808 
	C490.995575,64.914047 491.264618,65.183128 491.453247,65.158386 
	C492.896149,65.696846 494.302704,65.869339 495.661621,66.924423 
	C495.843384,67.218719 495.932343,67.077065 495.865234,67.126999 
	C498.725983,68.562996 501.993469,69.267128 504.750000,71.747818 
z"/>
<path fill="#533817" opacity="1.000000" stroke="none" 
	d="
M452.765564,95.462906 
	C463.064514,98.514496 472.374451,95.814079 481.534760,91.659782 
	C490.387421,87.645012 499.308746,83.780899 508.137207,79.714447 
	C509.497040,79.088081 511.496124,78.896187 511.770874,76.422318 
	C513.326416,76.002220 513.996277,76.789017 513.986084,78.628609 
	C512.388245,82.716263 508.779022,83.725197 505.546936,85.252892 
	C503.985016,85.991173 501.490387,85.975304 501.500885,88.243416 
	C501.513367,90.941658 504.279266,90.492340 505.986237,91.198219 
	C506.289673,91.323700 506.580627,91.474098 507.049133,91.964424 
	C507.052338,94.025269 505.642029,94.798378 504.341614,95.415565 
	C492.950439,100.822006 481.739929,106.654648 469.042999,108.687347 
	C460.709290,110.021523 452.936890,107.620155 444.599548,105.726746 
	C446.009888,108.592346 449.176331,109.035439 450.757019,111.601334 
	C451.517853,113.902054 452.163208,115.853210 452.767334,118.213020 
	C452.109589,118.484215 451.493103,118.346764 450.411316,118.118927 
	C446.657928,117.291199 444.691803,114.429588 441.543884,112.801926 
	C438.091278,109.729568 433.317444,109.212311 430.875793,105.115944 
	C434.332489,103.848808 437.314148,102.426788 439.990906,100.037674 
	C442.467194,97.827484 445.522919,97.002563 448.502502,99.698967 
	C449.810120,100.882362 451.357269,102.911118 453.090485,101.650085 
	C454.727966,100.458740 452.262421,98.782211 452.317047,97.178459 
	C452.334076,96.679253 452.352448,96.191422 452.765564,95.462906 
z"/>
<path fill="#F6F3EF" opacity="1.000000" stroke="none" 
	d="
M430.591431,104.812759 
	C434.391174,107.236053 438.057739,109.345802 441.949097,111.719498 
	C441.809814,114.397133 439.956726,113.211800 438.341675,113.142670 
	C408.517487,102.096581 380.387268,103.782089 354.051727,121.979622 
	C353.231232,122.546570 352.418915,123.125412 351.328186,123.900818 
	C350.309052,124.503242 349.536438,124.739609 348.343140,124.274803 
	C350.760132,119.049149 355.558441,116.178825 359.949738,112.422188 
	C360.118042,112.133980 360.076782,112.105400 360.087402,112.125549 
	C360.649750,111.145386 361.698883,110.846474 362.895569,110.217667 
	C366.277100,108.525833 369.378479,106.976883 372.737854,105.190834 
	C375.517578,102.567635 378.737854,101.880608 382.361084,101.314468 
	C383.323700,101.361664 383.909912,101.352722 384.747375,101.162262 
	C385.313721,100.654099 385.675323,100.389908 386.409790,100.237816 
	C387.319031,100.322716 387.895142,100.348991 388.736908,100.244812 
	C393.716431,97.906319 398.761780,99.325226 403.636658,98.873772 
	C405.725677,98.680298 407.934326,98.943245 410.534027,98.995659 
	C412.409729,98.961235 413.823730,98.536316 415.668671,98.878563 
	C416.581940,99.058189 417.085541,99.200493 417.933838,99.484970 
	C421.349731,100.736504 424.458496,101.740463 427.888611,102.869698 
	C428.635834,103.162903 429.042603,103.371498 429.712097,103.806450 
	C430.145172,104.170174 430.301727,104.334694 430.591431,104.812759 
z"/>
<path fill="#4C2F0F" opacity="1.000000" stroke="none" 
	d="
M428.837219,104.194633 
	C425.260193,103.237465 421.952606,102.314575 418.323059,101.199646 
	C417.690796,100.649536 417.322784,100.366508 416.561768,100.265480 
	C415.031921,100.302582 413.837433,100.232704 412.326935,99.984360 
	C411.661652,99.465904 411.501465,99.056831 411.772766,98.291382 
	C412.096252,96.279793 411.822479,94.597733 409.949341,94.033112 
	C405.080322,92.565445 406.750397,90.188614 408.967712,87.326263 
	C412.356171,84.855652 415.895172,87.238777 419.751617,86.738380 
	C421.927032,87.072021 423.761475,86.619286 425.655212,87.962051 
	C433.790436,91.453804 442.147430,92.784073 450.645996,94.942329 
	C451.463226,94.970146 451.906097,94.999100 452.670410,95.115334 
	C452.977661,96.377350 453.230408,97.417435 453.914642,98.453041 
	C454.840332,99.854141 456.845551,101.400307 455.029938,103.147301 
	C453.063904,105.038994 450.748016,103.389091 449.183044,102.329193 
	C443.357941,98.384071 442.758881,98.197723 437.992706,103.655205 
	C436.003540,105.932838 433.704193,104.480148 431.171692,105.084702 
	C430.724579,105.126305 430.306427,105.135811 430.145294,105.002487 
	C429.702057,104.641518 429.409576,104.428062 428.837219,104.194633 
z"/>
<path fill="#F6F3EF" opacity="1.000000" stroke="none" 
	d="
M576.168701,68.470497 
	C574.907227,67.474609 573.888489,66.376778 573.081543,65.140694 
	C567.848206,57.124054 560.397644,53.626938 551.018433,54.917885 
	C542.020081,56.156406 537.160950,62.577328 533.522705,70.184639 
	C533.028870,71.217186 532.568665,72.265831 531.991577,73.649666 
	C531.588501,74.334877 531.226135,74.440681 530.675293,73.979279 
	C530.389160,73.300529 530.221436,72.915771 529.873779,72.270706 
	C528.677124,69.605293 528.798157,67.181206 529.840454,64.365128 
	C530.760803,62.567680 531.413330,61.151329 532.111816,59.397484 
	C532.919312,54.597698 536.353638,52.458675 540.118042,50.230331 
	C541.181213,49.885803 541.895691,49.614311 542.808472,49.126579 
	C543.253357,48.689648 543.517822,48.493065 544.045410,48.287689 
	C544.290649,48.254795 544.316223,48.235382 544.320190,48.252903 
	C559.658142,43.969509 571.572327,49.511021 576.405396,63.160629 
	C577.017883,64.890381 577.851929,66.560204 576.168701,68.470497 
z"/>
<path fill="#523209" opacity="1.000000" stroke="none" 
	d="
M507.201294,92.141312 
	C505.770691,91.978752 504.613007,91.974983 503.455505,91.986977 
	C500.944458,92.012985 499.885284,89.995224 499.460602,88.249397 
	C499.018066,86.430115 500.851349,85.434723 502.526001,85.010254 
	C506.612946,83.974335 510.117218,81.874260 513.687012,79.146233 
	C516.651672,78.762596 519.142395,78.822189 519.834229,82.605881 
	C520.420593,83.803795 519.863953,84.184868 518.885864,84.598320 
	C516.233948,84.517097 515.054138,85.986633 513.948364,88.077927 
	C513.417480,88.919189 512.940552,89.355896 512.058838,89.792961 
	C511.188416,90.128815 510.597351,90.312408 509.859070,90.885185 
	C509.005707,91.664780 508.367676,92.211761 507.201294,92.141312 
z"/>
<path fill="#5B3409" opacity="1.000000" stroke="none" 
	d="
M530.247009,73.859451 
	C530.881653,73.584671 531.179932,73.636467 531.670898,73.916496 
	C532.332397,79.068924 536.556274,81.614098 540.202759,85.753723 
	C531.601135,83.644073 529.129700,90.341164 525.389587,94.570946 
	C522.257935,98.112549 520.171692,102.578514 517.357422,106.839417 
	C518.466370,103.179245 516.447510,98.610123 521.416809,95.332726 
	C525.460632,92.665726 528.942444,88.454857 531.425781,83.934746 
	C532.259644,82.416908 532.840820,80.453651 530.367493,79.059883 
	C529.877319,78.828598 529.750000,78.669403 529.805237,78.264915 
	C530.262939,76.687241 528.459045,75.381279 530.247009,73.859451 
z"/>
<path fill="#5B3409" opacity="1.000000" stroke="none" 
	d="
M515.610107,109.988724 
	C515.437439,113.363991 514.858154,116.723610 514.219177,120.429276 
	C509.873413,114.201347 510.550323,104.227806 513.242249,94.142807 
	C512.954041,91.926460 514.094238,90.832726 515.513245,89.608566 
	C516.056152,89.516510 516.280273,89.534935 516.752197,89.782104 
	C516.685425,94.900826 512.801697,98.840340 513.226746,103.889595 
	C513.406189,106.021317 511.238159,109.038307 515.610107,109.988724 
z"/>
<path fill="#533817" opacity="1.000000" stroke="none" 
	d="
M419.926941,86.612091 
	C416.773315,86.943901 413.350281,86.967628 409.465881,86.987915 
	C404.839233,85.083382 404.741364,82.447861 409.381989,79.475838 
	C414.491302,76.203674 419.707123,72.952469 426.082397,71.392990 
	C420.188354,75.467812 413.907654,79.511284 406.348450,84.377846 
	C411.771027,85.162621 415.714294,85.733307 419.926941,86.612091 
z"/>
<path fill="#533817" opacity="1.000000" stroke="none" 
	d="
M411.543884,98.011017 
	C411.996155,98.412498 412.005737,98.810486 412.013123,99.507195 
	C404.644745,99.563782 397.272339,99.018776 389.469604,100.187004 
	C389.355621,97.353470 391.513947,98.044411 393.179169,98.028442 
	C399.152679,97.971176 405.127106,98.006935 411.543884,98.011017 
z"/>
<path fill="#624626" opacity="1.000000" stroke="none" 
	d="
M344.510223,95.633209 
	C340.595123,93.626282 336.441467,97.436157 331.871674,93.607651 
	C337.762939,92.623352 342.860443,92.968117 347.940338,93.280029 
	C348.632233,93.322517 348.831726,94.750664 348.752411,94.743500 
	C347.236267,94.606476 346.579346,97.505348 344.510223,95.633209 
z"/>
<path fill="#543513" opacity="1.000000" stroke="none" 
	d="
M540.066040,50.118073 
	C537.806396,52.939331 534.527771,55.162956 532.443726,58.891907 
	C530.902100,55.339935 534.402100,51.153023 540.066040,50.118073 
z"/>
<path fill="#533817" opacity="1.000000" stroke="none" 
	d="
M517.161621,89.758041 
	C517.000000,90.010849 516.522156,90.014008 516.283203,90.014145 
	C515.901611,89.909447 515.758850,89.804611 515.387756,89.566681 
	C515.003235,89.353836 514.846985,89.274063 514.453491,89.080704 
	C513.895691,88.821060 513.597778,88.638626 513.161499,88.209656 
	C513.645203,85.564095 514.631470,83.484299 517.860962,83.892609 
	C518.555237,84.922188 518.340149,85.868233 518.850098,86.947540 
	C519.018982,88.388733 518.084900,88.882278 517.161621,89.758041 
z"/>
<path fill="#533817" opacity="1.000000" stroke="none" 
	d="
M434.887543,65.893158 
	C432.429230,67.885735 429.788788,69.608452 426.816528,71.407204 
	C427.293518,66.820389 431.544037,66.985825 434.887543,65.893158 
z"/>
<path fill="#624626" opacity="1.000000" stroke="none" 
	d="
M326.370789,96.302780 
	C325.842743,95.552383 325.615662,94.899872 325.159515,94.529449 
	C324.083130,93.655388 324.131622,97.125572 323.170929,95.291695 
	C322.454163,93.923508 323.829315,92.990227 325.437897,93.010262 
	C327.577179,93.036911 329.720795,93.013832 331.390167,96.188118 
	C329.190033,94.908470 328.060547,96.383186 326.370789,96.302780 
z"/>
<path fill="#533817" opacity="1.000000" stroke="none" 
	d="
M504.965820,71.628860 
	C501.752563,71.216026 499.049469,69.297935 495.982178,67.466591 
	C499.328644,67.454239 502.863342,67.722191 504.965820,71.628860 
z"/>
<path fill="#533817" opacity="1.000000" stroke="none" 
	d="
M382.278656,101.257584 
	C379.735565,102.549881 376.733704,103.729156 373.363831,104.931084 
	C374.682068,100.776527 378.178650,100.793030 382.278656,101.257584 
z"/>
<path fill="#533817" opacity="1.000000" stroke="none" 
	d="
M529.765076,64.151985 
	C530.013062,66.365036 529.917786,68.746040 529.758179,71.568710 
	C526.596619,69.553253 527.573975,66.951988 529.765076,64.151985 
z"/>
<path fill="#533817" opacity="1.000000" stroke="none" 
	d="
M529.600220,78.015526 
	C529.987793,78.019623 529.996887,78.503845 530.000732,78.745819 
	C529.867798,80.204704 530.261597,81.808395 528.267273,81.801491 
	C527.190430,81.797752 526.372070,81.067047 526.256348,80.037125 
	C525.990784,77.674080 527.843994,78.140274 529.600220,78.015526 
z"/>
<path fill="#7B6C5A" opacity="1.000000" stroke="none" 
	d="
M519.203369,86.956665 
	C517.393066,87.026909 516.431458,86.473198 517.872009,84.440369 
	C518.572205,83.917892 519.113037,83.676460 519.820435,83.187904 
	C520.921753,82.983917 521.982361,82.837532 521.956177,84.626801 
	C521.807922,85.187035 521.697327,85.392784 521.264099,85.735466 
	C520.415466,86.148491 519.889343,86.424599 519.203369,86.956665 
z"/>
<path fill="#533817" opacity="1.000000" stroke="none" 
	d="
M473.874542,55.827385 
	C472.047302,55.320614 470.216492,54.462387 468.177612,53.340927 
	C470.869171,51.582569 472.342957,53.595913 473.874542,55.827385 
z"/>
<path fill="#7B6C5A" opacity="1.000000" stroke="none" 
	d="
M350.688232,114.156273 
	C350.534149,116.528152 348.875092,117.971756 346.304382,118.959503 
	C346.081940,116.169174 348.499512,115.482193 350.688232,114.156273 
z"/>
<path fill="#533817" opacity="1.000000" stroke="none" 
	d="
M484.959473,61.559860 
	C483.398132,61.163445 481.767609,60.416718 479.968811,59.375107 
	C481.847626,58.952137 483.729736,59.218479 484.959473,61.559860 
z"/>
<path fill="#533817" opacity="1.000000" stroke="none" 
	d="
M495.826050,66.823227 
	C494.574036,66.714012 493.304657,66.209290 491.838623,65.419113 
	C493.132141,65.238831 494.961243,64.252968 495.826050,66.823227 
z"/>
<path fill="#533817" opacity="1.000000" stroke="none" 
	d="
M521.096313,86.120636 
	C521.045044,85.571136 521.230286,85.333656 521.707886,85.070618 
	C522.492249,85.111382 523.501892,84.940269 523.220642,85.888809 
	C522.956726,86.778931 522.115784,87.042610 521.096313,86.120636 
z"/>
<path fill="#543D23" opacity="1.000000" stroke="none" 
	d="
M362.801514,110.055557 
	C362.359833,110.725700 361.543945,111.376595 360.413025,112.086594 
	C360.049927,110.532112 360.969940,109.987518 362.801514,110.055557 
z"/>
<path fill="#533817" opacity="1.000000" stroke="none" 
	d="
M508.969849,73.756485 
	C508.417572,73.936943 507.832825,73.812439 507.095459,73.418335 
	C507.803986,71.956879 508.463715,72.091499 508.969849,73.756485 
z"/>
<path fill="#533817" opacity="1.000000" stroke="none" 
	d="
M463.839020,50.707939 
	C463.555267,50.960522 463.115265,50.996704 462.343842,51.037762 
	C462.387878,50.309307 462.894073,49.972382 463.839020,50.707939 
z"/>
<path fill="#533817" opacity="1.000000" stroke="none" 
	d="
M475.782898,56.945118 
	C475.328949,57.055550 474.740997,56.865715 473.991577,56.407791 
	C474.436401,56.308086 475.042633,56.476471 475.782898,56.945118 
z"/>
<path fill="#533817" opacity="1.000000" stroke="none" 
	d="
M478.841980,58.629631 
	C478.666199,58.740753 478.340851,58.652187 477.895630,58.325279 
	C478.126404,58.080853 478.431976,58.195190 478.841980,58.629631 
z"/>
<path fill="#533817" opacity="1.000000" stroke="none" 
	d="
M490.818848,64.686752 
	C490.625702,64.825020 490.255829,64.735992 489.721100,64.399734 
	C489.918213,64.254807 490.280151,64.357132 490.818848,64.686752 
z"/>
<path fill="#543513" opacity="1.000000" stroke="none" 
	d="
M544.030151,48.249832 
	C544.038574,48.475460 543.786560,48.696129 543.270630,48.913567 
	C543.261108,48.688511 543.515442,48.466690 544.030151,48.249832 
z"/>
<path fill="#533817" opacity="1.000000" stroke="none" 
	d="
M510.783203,74.918961 
	C510.548065,75.041878 510.168396,74.877052 509.631348,74.435570 
	C509.862213,74.316353 510.250427,74.473793 510.783203,74.918961 
z"/>
<path fill="#533817" opacity="1.000000" stroke="none" 
	d="
M386.406860,100.267899 
	C386.383453,100.535416 386.023987,100.774384 385.331543,100.997040 
	C385.355988,100.733612 385.713409,100.486481 386.406860,100.267899 
z"/>
<path fill="#FCFBFB" opacity="1.000000" stroke="none" 
	d="
M710.738281,367.945190 
	C710.737793,363.297577 710.848083,359.139404 710.702698,354.990204 
	C710.599426,352.044250 711.666077,350.631104 714.722656,350.822113 
	C719.676453,351.131622 724.681396,350.249603 729.596619,351.596069 
	C735.741760,353.279480 738.942566,358.058044 738.312073,364.789581 
	C737.750427,370.786713 733.708435,374.664734 727.558105,375.051392 
	C724.243530,375.259796 720.919434,375.604980 717.608582,375.523376 
	C710.730835,375.353912 710.733276,375.253876 710.738281,367.945190 
z"/>
<path fill="#F7F6F5" opacity="1.000000" stroke="none" 
	d="
M645.365234,112.668396 
	C639.218811,110.511009 635.686218,105.068687 630.153259,101.742798 
	C627.538147,101.227905 625.266418,101.594177 623.011719,101.481407 
	C619.917358,101.326637 618.533508,99.922714 619.785400,96.412231 
	C626.363220,96.025337 632.670471,95.977043 638.977783,95.950111 
	C640.499146,95.943611 642.020325,96.362915 640.604553,98.155487 
	C637.201782,102.463928 639.898254,105.021698 642.856506,107.797050 
	C644.164307,109.023979 646.406677,109.926498 645.365234,112.668396 
z"/>
<path fill="#814C11" opacity="1.000000" stroke="none" 
	d="
M613.078735,158.815643 
	C613.201050,157.989792 613.708252,157.207626 614.309265,156.280823 
	C610.990540,155.371994 607.170166,156.845428 604.631226,153.652267 
	C606.212524,152.001633 608.231873,152.070465 610.541748,151.863022 
	C611.009644,153.581299 612.174072,153.856094 613.576294,154.136673 
	C614.950806,154.411652 616.854309,154.680130 616.773010,156.529449 
	C616.696472,158.270782 614.904541,158.534866 613.078735,158.815643 
z"/>
<path fill="#7B6C5A" opacity="1.000000" stroke="none" 
	d="
M619.761169,96.031677 
	C619.087341,100.075005 620.841187,101.553185 624.730835,101.238815 
	C626.190979,101.120811 627.676819,101.321434 629.464905,101.549881 
	C627.797668,101.736877 625.793396,101.563393 623.840088,101.803719 
	C619.780273,102.303238 617.501282,100.860855 617.592224,96.223618 
	C618.316406,95.912178 618.891357,95.954880 619.761169,96.031677 
z"/>
<path fill="#7B6C5A" opacity="1.000000" stroke="none" 
	d="
M616.930176,93.475494 
	C616.960876,93.561668 616.670166,93.579758 616.670166,93.579758 
	C616.670166,93.579758 616.506042,93.340393 616.593872,93.223495 
	C616.681641,93.106606 616.899536,93.389320 616.930176,93.475494 
z"/>
<path fill="#624626" opacity="1.000000" stroke="none" 
	d="
M588.757263,375.014893 
	C590.081116,375.137909 591.328613,374.784424 591.468445,376.181976 
	C591.562927,377.126617 590.719482,377.762268 589.922791,377.774170 
	C584.841125,377.850006 579.757874,377.812805 574.659668,377.165680 
	C579.110413,375.319733 583.965637,376.827087 588.757263,375.014893 
z"/>
<path fill="#F8F7F6" opacity="1.000000" stroke="none" 
	d="
M654.522705,371.532288 
	C656.330139,376.892731 657.921387,381.917328 659.695251,386.876556 
	C660.909302,390.270599 659.744507,391.370331 656.333618,391.235352 
	C652.032715,391.065125 647.720032,391.191467 643.412476,391.189301 
	C641.628174,391.188385 639.618958,390.944977 640.398376,388.559906 
	C643.294373,379.697388 646.432312,370.913940 649.917236,360.834351 
	C651.737183,365.044617 653.060791,368.106598 654.522705,371.532288 
z"/>
<path fill="#624626" opacity="1.000000" stroke="none" 
	d="
M568.259094,220.979050 
	C568.758484,221.783936 568.800476,222.389740 568.022644,222.548996 
	C567.787231,222.597214 567.245239,222.097595 567.170654,221.773636 
	C567.038025,221.197830 567.110168,220.523010 568.259094,220.979050 
z"/>
<path fill="#CA9E70" opacity="1.000000" stroke="none" 
	d="
M347.801147,124.304626 
	C348.764984,124.048668 349.527496,124.056427 350.671814,124.083557 
	C347.200348,127.666397 344.299103,132.236374 339.263885,134.940399 
	C341.165833,130.958298 343.725342,127.213631 347.801147,124.304626 
z"/>
<path fill="#CA9E70" opacity="1.000000" stroke="none" 
	d="
M338.700623,135.090576 
	C338.778076,135.503265 338.598602,136.085724 338.137634,136.811127 
	C338.051941,136.389496 338.247833,135.824921 338.700623,135.090576 
z"/>
<path fill="#F4F1EC" opacity="1.000000" stroke="none" 
	d="
M506.803406,92.306778 
	C507.525391,91.602432 508.122498,91.229462 508.925568,90.685623 
	C509.220520,89.942139 509.552765,89.619705 510.512115,89.532799 
	C511.814758,89.587807 513.113892,89.335495 513.029968,90.742615 
	C512.911255,92.732826 511.283264,93.240746 509.302429,93.762329 
	C493.692932,104.490402 477.546082,112.506180 458.271301,111.529915 
	C456.117401,111.420822 453.950134,111.575760 451.330811,111.779572 
	C446.861603,110.368538 443.512146,107.905029 440.147552,104.339081 
	C442.781403,103.564255 444.544098,104.080040 446.408875,104.712570 
	C460.145813,109.371941 473.502777,108.039467 486.673096,102.295761 
	C493.473572,99.330009 500.124390,96.094131 506.803406,92.306778 
z"/>
<path fill="#5B3409" opacity="1.000000" stroke="none" 
	d="
M597.304321,110.518372 
	C594.793152,107.426819 592.625366,104.480576 590.219299,101.743744 
	C588.274414,99.531425 589.021790,98.044579 591.270996,97.124054 
	C595.905640,95.227287 600.724731,95.571938 605.497375,96.566040 
	C606.636841,96.803375 607.524719,97.724678 607.941406,98.896912 
	C609.318970,102.772278 601.919067,111.200462 597.304321,110.518372 
z"/>
<path fill="#5B3409" opacity="1.000000" stroke="none" 
	d="
M550.796753,60.035385 
	C554.765320,60.726425 558.327698,61.370647 561.060791,65.172287 
	C553.319336,66.466309 546.241089,68.342430 540.230530,73.044479 
	C538.317261,74.541245 538.202759,72.512268 538.078186,71.223763 
	C537.525574,65.505325 543.737610,58.694172 550.796753,60.035385 
z"/>
<path fill="#CA9E70" opacity="1.000000" stroke="none" 
	d="
M438.197815,113.150581 
	C439.254211,112.827721 440.552002,113.506615 441.963928,112.305267 
	C445.066040,113.250916 447.258667,115.468925 449.781555,117.745071 
	C448.503632,119.761086 447.427948,118.416046 446.162750,117.676247 
	C443.618591,116.188583 440.989594,114.845924 438.197815,113.150581 
z"/>
<path fill="#D6CABE" opacity="1.000000" stroke="none" 
	d="
M509.401398,93.986809 
	C509.398743,92.370354 512.871216,92.905281 511.378143,90.096237 
	C510.907013,89.840393 510.714264,89.644791 510.895142,89.275803 
	C511.754364,88.892487 512.239929,88.682564 512.861084,88.239212 
	C513.447205,87.973572 513.897766,87.941360 514.680542,87.976151 
	C515.165283,88.190056 515.317749,88.336952 515.681763,88.720718 
	C515.941162,89.130440 515.989014,89.303307 516.040527,89.745232 
	C515.206116,91.098244 514.367859,92.182205 513.368530,93.489792 
	C512.078857,93.808311 510.950317,93.903198 509.401398,93.986809 
z"/>
<path fill="#814C11" opacity="1.000000" stroke="none" 
	d="
M390.014465,165.991028 
	C390.025604,165.983231 389.587128,165.785141 389.587128,165.785141 
	C389.587128,165.785141 389.858093,165.806641 389.923645,165.913940 
	C389.989166,166.021255 390.003296,165.998810 390.014465,165.991028 
z"/>
<path fill="#CA9E70" opacity="1.000000" stroke="none" 
	d="
M452.713898,118.611832 
	C452.726074,118.621674 452.644684,118.597252 452.680267,118.592224 
	C452.715851,118.587189 452.701721,118.601982 452.713898,118.611832 
z"/>
<path fill="#533817" opacity="1.000000" stroke="none" 
	d="
M450.796539,94.645660 
	C447.378723,96.602081 443.868347,94.478607 440.719666,93.678253 
	C435.835846,92.436852 430.396423,92.181496 426.068359,88.480377 
	C434.390381,89.398605 442.375305,92.293724 450.796539,94.645660 
z"/>
<path fill="#533817" opacity="1.000000" stroke="none" 
	d="
M428.728485,104.399765 
	C428.921082,104.252968 429.274384,104.345589 429.805939,104.653687 
	C429.619171,104.792511 429.254211,104.715851 428.728485,104.399765 
z"/>
<path fill="#533817" opacity="1.000000" stroke="none" 
	d="
M416.458588,100.616364 
	C416.666412,100.415565 417.106354,100.458672 417.773682,100.754700 
	C417.564301,100.958504 417.127502,100.909386 416.458588,100.616364 
z"/>
<path fill="#533817" opacity="1.000000" stroke="none" 
	d="
M436.467163,96.024948 
	C435.656494,97.098381 434.753235,97.145638 433.869812,96.576027 
	C433.401886,96.274330 433.412445,95.717506 433.886414,95.425705 
	C434.779938,94.875587 435.681488,94.920853 436.467163,96.024948 
z"/>
<path fill="#533817" opacity="1.000000" stroke="none" 
	d="
M510.901672,89.099121 
	C511.268799,89.102417 511.172455,89.567139 511.136108,89.801559 
	C510.667297,90.161308 510.234863,90.286636 509.466980,90.463364 
	C509.263367,89.709732 509.716522,89.222404 510.901672,89.099121 
z"/>
<path fill="#F4F1EC" opacity="1.000000" stroke="none" 
	d="
M515.928284,88.681114 
	C515.589478,88.882492 515.344116,88.719345 515.085083,88.255638 
	C515.329590,88.163651 515.646362,88.284149 515.928284,88.681114 
z"/>
<path fill="#7B6C5A" opacity="1.000000" stroke="none" 
	d="
M600.529907,100.044228 
	C599.055664,101.833542 597.459351,100.783173 595.186523,101.149399 
	C597.098267,98.648491 598.672241,98.460945 600.529907,100.044228 
z"/>
</svg>