<?xml version="1.0" encoding="utf-8"?>
<!-- Generator: Adobe Illustrator 15.1.0, SVG Export Plug-In . SVG Version: 6.00 Build 0)  -->
<!DOCTYPE svg PUBLIC "-//W3C//DTD SVG 1.1//EN" "http://www.w3.org/Graphics/SVG/1.1/DTD/svg11.dtd">
<svg version="1.1" id="Layer_1" xmlns="http://www.w3.org/2000/svg" xmlns:xlink="http://www.w3.org/1999/xlink" x="0px" y="0px"
	 width="515.91px" height="294px" viewBox="0 210.75 515.91 294" enable-background="new 0 210.75 515.91 294" xml:space="preserve"
	>
<path fill="#FF0000" d="M910.958,515.24c-115.175,0-230.07-0.007-344.966,0.053c-2.098,0.001-2.572-0.473-2.57-2.57
	c0.062-84.307,0.062-168.613,0-252.92c-0.002-2.098,0.473-2.57,2.57-2.57c170.291,0.057,340.583,0.057,510.874,0
	c2.098,0,2.572,0.473,2.57,2.57c-0.062,84.307-0.062,168.613,0,252.919c0.002,2.098-0.472,2.574-2.57,2.571
	C1021.657,515.227,966.448,515.24,910.958,515.24z"/>
<path fill="#523209" d="M226.217,411.234c-0.764,0.12-1.354,0.152-2.163,0.13c-5.278-0.549-10.351-0.763-15.666-0.563
	c-1.926,0.099-3.622,0.108-5.567,0.069c-1.987-0.772-3.764-0.511-5.705-0.155c-0.409,0.129-0.653,0.158-1.077,0.145
	c-2.658-0.797-5.166-0.459-7.855-0.156c-6.17,0.308-12.146-0.005-18.375-0.293c-1.043-0.721-1.995-0.525-2.901-0.556
	c-0.828-0.027-1.674,0.095-2.48-0.072c-1.413-0.293-3.335-0.407-3.404-2.17c-0.072-1.836,1.848-2.014,3.266-2.294
	c1.44-0.283,2.938-0.293,4.479-1.088c0.593-0.305,1.006-0.45,1.673-0.477c1.143-0.032,2.067-0.066,3.224-0.104
	c2.297-1.639,0.229-2.488-0.58-3.74c-0.126-0.139-0.242-0.325-0.241-0.436c-0.894-1.64-0.248-3.752-2.002-5.157
	c-0.5-0.954-0.853-1.763-1.196-2.766c-0.135-1.032-0.009-1.939-0.692-2.829c-0.604-0.584-0.555-1.189-0.6-1.98
	c-0.528-2.961-0.896-5.739-1.875-8.605c-0.154-0.441-0.208-0.686-0.255-1.117c-0.03-0.65-0.016-1.121-0.264-1.724
	c-0.146-0.755-0.215-1.353-0.256-2.175c0.042-4.869-0.767-9.468-0.653-14.124c0.083-3.438,1.177-6.743,1.21-10.426
	c0.075-0.91,0.118-1.575,0.304-2.38c1.59-1.5,0.919-3.529,1.714-5.317c-0.03-0.398-0.008-0.568,0.125-0.848
	c0.225-0.289,0.366-0.48,0.454-0.867c-0.061-0.357-0.037-0.528,0.109-0.806c2.552-6.131,6.575-11.333,9.208-17.493
	c0.036-0.2,0.088-0.2,0.079-0.224c2.65-0.761,4.139-2.454,4.756-5.191c0.552-2.447,2.816-4.044,5.201-3.854
	c0.159,0.32,0.197,0.46,0.24,0.818c-0.742,2.869-2.587,4.931-3.851,7.307c-5.903,11.098-8.484,22.932-8.772,35.45
	c-0.371,16.143,4.209,30.864,11.956,44.787c0.48,0.862,0.766,1.929,1.828,2.249c0.291-0.002,0.502-0.144,0.439-0.334
	c-1.28-3.871,0.673-5.711,3.853-7.693c10.848-6.769,20.447-14.984,26.94-26.254c5.831-10.12,5.916-20.535,1.181-31.097
	c-0.719-1.604-1.828-3.051-1.966-5.101c0.133-0.51,0.309-0.744,0.773-0.984c1.351-0.014,2.052,0.777,2.783,1.483
	c10.401,10.058,15.018,23.947,8.936,38.537c-1.169,2.804-0.968,3.019,1.941,3.098c4.58,0.125,9.112-0.199,13.637-0.987
	c2.387-0.415,3.691-1.462,4.529-3.815c2.267-6.373,5.689-12.137,10.091-17.295c0.727-0.852,1.515-1.65,2.377-2.367
	c0.731-0.609,1.629-1.306,2.504-0.677c1.043,0.751,0.145,1.708-0.235,2.471c-4.305,8.646-7.778,17.559-8.835,27.25
	c-0.854,7.838-0.773,15.627,1.396,23.176c-0.021,0.307,0.065,0.246,0.029-0.044c-0.719-5.701-0.711-5.67,4.683-7.759
	c8.503-3.293,16.503-7.566,23.216-13.762c7.333-6.768,11.613-15.198,11.841-25.384c0.094-4.184,0.013-8.367-0.172-12.745
	c0.202-0.302,0.309-0.403,0.628-0.558c1.987,0.379,2.206,2.005,2.729,3.336c2.938,7.465,3.644,15.097,1.385,23.202
	c4.641-4.771,8.706-9.568,12.274-14.782c0.679-0.992,1.33-2.022,2.569-2.763c2.178,0.562,1.272,1.766,0.666,2.743
	c-1.17,1.886-2.425,3.731-3.731,5.517c-2.216,3.029-4.742,5.842-5.281,9.615c1.191-0.714,0.635-2.349,1.262-3.474
	c0.619-1.113,1.012-2.582,2.702-2.319c1.59,0.247,1.485,1.656,1.692,3.022c0.052,0.438,0.048,0.687,0.018,1.121
	c-0.245,1.258-0.021,2.219,0.711,3.042c4.241,4.777,6.743,10.633,9.961,16.045c0.19,0.321,0.414,0.645,0.484,1.003
	c0.486,2.502,0.916,3.654,4.444,2.992c6.294-1.182,11.99,4.074,12.781,10.46c0.115,0.925,0.187,1.855,0.765,2.858
	c0.124,0.16,0.284,0.226,0.285,0.313c0.665,1.688,1.854,2.506,3.599,2.527c0.456,0.006,0.915,0.1,1.345,0.256
	c0.763,0.277,1.687,0.451,1.843,1.421c0.157,0.977-0.67,1.414-1.323,1.9c-0.453,0.337-1.003,0.43-1.739,0.626
	c-0.348,0.065-0.489,0.073-0.836,0.035c-3.34-1.235-6.346-0.225-9.535,0.608c-13.235,0.187-26.307,0.253-39.636,0.271
	c-5.339-0.627-10.403-0.01-15.703,0.251c-10.867,0.133-21.504,0.178-32.397,0.171c-6.08-0.711-11.914-0.379-17.969-0.139
	c-0.995,0.132-1.767,0.165-2.765,0.148C229.186,410.74,227.788,410.916,226.217,411.234z"/>
<path fill="#52340E" d="M350.171,346.084c-0.067,15.27-0.134,30.264-0.214,45.258c-0.001,0.151-0.19,0.302-0.579,0.885
	c-1.688-1.81-3.171-3.708-4.96-5.249c-3.012-2.596-6.479-4.373-10.59-4.379c-1.148-0.002-1.608-0.471-1.959-1.504
	c-1.51-4.455-3.829-8.462-6.996-11.949c-1.016-1.117-1.209-2.086-0.331-3.456c4.999-7.803,7.545-16.493,8.961-25.558
	c0.367-2.354,1.182-3.857,3.82-4.631c10.809-3.172,20.192-8.838,28.057-16.961c0.688-0.711,1.436-1.716,2.589-1.243
	c1.213,0.498,1.33,1.826,1.21,2.878c-0.67,5.858-0.013,11.724-0.141,17.584c-0.041,1.878-0.551,2.182-2.166,2.156
	c-4.47-0.072-8.951,0.149-13.41-0.08c-2.774-0.142-3.696,0.835-3.308,3.46C350.276,344.116,350.172,344.97,350.171,346.084z"/>
<path fill="#543614" d="M188.615,453.528c-1.676-4.665-3.263-9.13-4.949-13.875c-0.966,0.948-0.68,1.725-0.681,2.387
	c-0.016,8.389-0.06,16.777,0.053,25.165c0.025,1.968-0.343,3.027-2.536,2.707c-0.542-0.079-1.117,0.023-1.671,0.09
	c-2.522,0.303-3.583-0.458-3.547-3.333c0.161-12.954,0.107-25.911,0.019-38.866c-0.015-2.112,0.41-3.092,2.748-2.867
	c2.49,0.239,5.427-0.619,7.4,0.437c1.912,1.023,1.793,4.263,2.586,6.518c2.766,7.868,5.41,15.779,8.178,23.646
	c0.236,0.674,0.016,1.926,1.205,1.918c1.071-0.008,1.127-1.111,1.396-1.852c3.413-9.408,6.844-18.812,10.154-28.257
	c0.631-1.8,1.523-2.391,3.431-2.366c7.431,0.095,7.406,0.024,7.421,7.505c0.021,11.371,0.008,22.743,0.183,34.112
	c0.037,2.424-0.523,3.29-3.059,3.208c-4.82-0.157-4.896-0.019-4.917-4.861c-0.034-7.442-0.609-14.886,0.023-22.329
	c0.056-0.659,0.419-1.728-0.567-1.888c-1.017-0.164-0.888,1.009-1.117,1.624c-3.148,8.422-6.299,16.844-9.341,25.306
	c-0.629,1.751-1.67,2.22-3.368,2.147c-1.607-0.069-3.012,0.105-3.716-1.995C192.35,463.063,190.467,458.416,188.615,453.528z"/>
<path fill="#503310" d="M94.708,466.324c0.343,2.705-0.329,3.735-3.146,3.55c-5.389-0.354-5.396-0.156-5.394-5.502
	c0.006-12.115,0.065-24.23-0.045-36.346c-0.021-2.237,0.604-2.848,2.813-2.817c5.773,0.081,5.775-0.024,5.768,5.715
	c-0.005,3.634,0.059,7.271-0.05,10.902c-0.052,1.742,0.616,2.257,2.283,2.222c4.378-0.093,8.761-0.123,13.139-0.022
	c1.731,0.04,2.012-0.746,1.995-2.185c-0.054-4.659,0.059-9.322-0.086-13.979c-0.066-2.137,0.458-2.961,2.786-2.911
	c5.66,0.122,5.665,0.001,5.664,5.794c-0.003,12.115-0.054,24.231,0.03,36.346c0.014,2.048-0.495,2.739-2.639,2.714
	c-5.752-0.069-5.747,0.034-5.725-5.701c0.015-3.821-0.041-7.643,0.037-11.462c0.035-1.749-0.51-2.529-2.395-2.477
	c-4.191,0.116-8.388,0.105-12.58,0.05c-1.952-0.026-2.559,0.78-2.505,2.695C94.784,457.287,94.705,461.67,94.708,466.324z"/>
<path fill="#543513" d="M304.759,262.384c0.127-3.561-2.324-3.088-4.699-3.12c10.052-7.418,22.541-3.576,26.824,8.417
	c0.7,1.959,1.605,2.458,3.661,2.792c7.246,1.179,13.477,4.318,17.147,11.102c0.727,1.343,1.451,1.906,2.974,1.858
	c3.354-0.104,6.728,0.177,10.065-0.075c8.544-0.646,11.022,7.369,7.552,13.332c-1.097,1.884-1.9,3.759-2.359,5.886
	c-2.411,11.186-9.796,18.292-19.555,23.295c-4.219,2.163-8.698,3.822-13.347,4.751c-2.435,0.487-3.639,1.543-3.864,4.118
	c-0.67-0.193-0.864-0.779-1.169-1.555c-0.249-1.903-1.152-2.897-2.833-3.258c-0.612-0.132-1.351-0.391-1.313-1.214
	c0.044-0.969,0.893-1.178,1.613-1.196c5.773-0.146,11.132-2.006,16.692-3.937c0.726-0.155,1.475,0.015,1.663-0.581
	c0.244-0.774-0.591-0.749-1.036-0.951c-0.612-0.279-1.162-0.575-1.158-1.549c1.004-1.672,2.623-2.244,4.042-3.099
	c7.225-4.356,13.085-9.794,14.691-18.802c0.385-1.308-0.425-1.93-1.039-2.574c-1.358-1.424-2.725-2.755-2.177-5.054
	c0.303-1.271-0.828-1.219-1.638-1.232c-2.681-0.044-5.362-0.016-8.252-0.021c-0.636-0.022-1.053-0.094-1.659-0.308
	c-0.44-0.25-0.635-0.458-0.881-0.899c-0.219-0.444-0.334-0.702-0.54-1.148c-4.313-7.794-10.731-11.529-19.463-11.208
	c-1.337,0.049-2.712,0.11-2.868-1.978c0.759-3.841-0.973-6.654-3.481-8.779c-3.332-2.823-7.159-4.711-11.774-3
	C306.058,262.591,305.496,262.647,304.759,262.384z"/>
<path fill="#553817" d="M320.42,460.205c-0.376,2.452,0.455,3.169,2.707,3.096c5.213-0.169,10.439,0.068,15.652-0.104
	c2.807-0.093,2.438,1.653,2.292,3.287c-0.137,1.531,0.81,3.584-2.404,3.484c-8.1-0.251-16.212-0.176-24.318-0.081
	c-1.94,0.022-2.543-0.467-2.529-2.458c0.096-13.232,0.107-26.466,0.043-39.698c-0.01-2.049,0.549-2.757,2.677-2.726
	c8.013,0.118,16.029,0.149,24.041,0.011c2.625-0.046,3.09,1.068,3.07,3.347c-0.019,2.242-0.404,3.396-3.07,3.291
	c-5.21-0.206-10.436,0.013-15.653-0.076c-2.063-0.036-2.87,0.666-2.698,2.773c0.195,2.41,0.241,4.843,0.172,7.261
	c-0.051,1.785,0.512,2.471,2.389,2.418c4.19-0.116,8.393,0.125,12.577-0.067c2.953-0.135,2.391,1.746,2.515,3.469
	c0.135,1.87-0.151,2.915-2.49,2.803c-4.276-0.205-8.572,0.012-12.856-0.102c-1.759-0.046-2.238,0.54-2.136,2.247
	C320.55,454.887,320.429,457.409,320.42,460.205z"/>
<path fill="#543715" d="M258.616,425.441c0.958,6.152,0.958,6.152-4.875,6.151c-4.286-0.001-8.574,0.081-12.857-0.037
	c-1.98-0.054-2.653,0.652-2.541,2.593c0.135,2.322,0.188,4.669,0.003,6.983c-0.188,2.349,0.858,2.87,2.95,2.804
	c4.189-0.135,8.392,0.061,12.573-0.167c2.514-0.136,2.74,1.104,2.612,3.028c-0.112,1.701,0.512,3.589-2.497,3.425
	c-4.273-0.231-8.571,0.032-12.854-0.088c-2-0.057-2.908,0.453-2.773,2.635c0.167,2.691,0.119,5.404,0.022,8.103
	c-0.066,1.835,0.657,2.449,2.462,2.42c5.217-0.087,10.438,0.057,15.651-0.087c2.288-0.063,3.186,0.513,2.914,2.975
	c-0.435,3.926-0.299,3.865-4.324,3.797c-7.451-0.126-14.905-0.212-22.358-0.181c-1.906,0.008-2.594-0.509-2.586-2.495
	c0.049-13.229,0-26.46-0.044-39.69c-0.005-1.324,0.028-2.447,1.803-2.445C240.736,425.179,249.575,424.785,258.616,425.441z"/>
<path fill="#E7932D" d="M280.783,452.94c-0.016,4.846-0.126,9.414-0.021,13.977c0.054,2.372-0.712,3.451-3.206,3.291
	c-3.343-0.216-6.698-0.33-10.047-0.3c-1.992,0.018-2.444-0.779-2.432-2.657c0.076-11.369,0.03-22.738,0.023-34.108
	c-0.001-1.118,0.038-2.239-0.034-3.354c-0.361-5.549-0.355-4.656,4.669-4.711c2.796-0.03,5.597,0.077,8.386-0.057
	c2.093-0.101,2.744,0.695,2.719,2.763C280.739,436.075,280.786,444.368,280.783,452.94z"/>
<path fill="#51330F" d="M165.692,461.828c-3.668,7.951-10.891,10.336-19.202,9.446c-4.145-0.442-8.248-1.304-12.031-3.207
	c-2.464-1.24-4.573-2.873-5.713-5.501c-0.856-1.973-0.456-3.737,1.191-5.021c3.518-2.74,7.463-4.07,11.985-3.214
	c4.19,0.793,8.276,0.729,12.217-1.274c1.817-0.924,3.834-1.563,5.921-1.257C165.733,452.633,167.573,455.865,165.692,461.828z"/>
<path fill="#533615" d="M284.527,450.111c-2.283-1.488-1.465-3.66-1.15-5.376c0.303-1.648,2.21-0.852,3.403-0.864
	c5.474-0.06,8.157-2.857,7.234-7.681c-0.606-3.171-2.314-4.577-5.598-4.606c-0.466-0.004-0.932,0-1.397,0
	c-3.854,0.002-4.916-1.375-4.072-5.18c0.191-0.864,0.584-1.356,1.479-1.316c3.526,0.158,7.068,0.157,10.488,1.252
	c7.794,2.495,10.363,13.605,3.839,18.713c-1.365,1.069-1.723,1.854,0.124,2.742c7.12,3.423,7.701,15.056-1.585,20.168
	c-4.161,2.29-8.676,1.735-13.1,1.994c-0.858,0.05-1.353-0.51-1.367-1.417c-0.02-1.116-0.072-2.232-0.077-3.349
	c-0.007-1.381,0.647-2,2.08-1.934c1.673,0.078,3.354,0.054,5.028-0.007c3.849-0.137,6.054-2.512,6.071-6.469
	c0.017-4.054-2.046-6.437-5.85-6.637C288.318,450.054,286.548,450.127,284.527,450.111z"/>
<path fill="#51361B" d="M169.648,404.075c-1.032,1.993-2.827,1.632-4.387,1.856c-1.422,0.206-3.65,0.044-3.676,1.583
	c-0.024,1.492,2.275,1.396,3.644,1.754c1.374,0.359,2.96-0.572,4.269,0.868c-16.01,0.551-31.935-0.922-48.285-3.126
	c2.017-1.761,2.013-1.81,8.14-2.384c2.772-0.26,5.567-0.282,8.611-0.373c2.368-0.121,4.493,0.229,6.781-0.27
	c2.818-0.164,5.448-0.231,8.338-0.26c1.442-0.096,2.637,0.073,3.991-0.138c4.099-0.545,8.035-0.278,12.21-0.114
	C169.598,403.686,169.672,403.795,169.648,404.075z"/>
<path fill="#4C2F0F" d="M349.028,409.967c1.212-0.78,2.284-1.445,3.495-2.197c-1.232-1.111-2.468-1.357-3.748-1.256
	c-1.97,0.157-2.991-0.613-2.9-2.89c4.434,0.313,8.87,0.075,13.296,0.154c5.454,0.099,10.909,0.171,16.607,0.353
	c0.49,0.114,0.735,0.129,1.165,0.152c5.93,0.129,11.721-0.352,17.407,1.641c-6.357,2.418-13.107,2.443-20.007,2.934
	c-1.127,0.227-2.052,0.112-3.159,0.293c-1.559,0.256-2.92,0.398-4.505,0.496c-1.214-0.1-2.203-0.102-3.357,0.037
	c-1.116,0.17-2.067,0.255-3.255,0.301c-1.082-0.137-1.929-0.242-2.921,0.137c-2.594,0.146-5.028,0.203-7.72,0.224
	C349.075,410.231,348.983,410.156,349.028,409.967z"/>
<path fill="#513616" d="M145.246,419.463c3.298,1.154,3.994,5.821,2.746,9.058c-0.532,1.379-1.857,1.576-2.68,0.619
	c-2.242-2.604-3.884-1.091-5.568,0.539c-0.663,0.642-1.175,1.438-1.803,2.121c-2.22,2.409-4.263,1.949-5.357-1.188
	c-0.91-2.607,0.127-6.86,2.413-8.644C137.921,419.688,141.174,418.23,145.246,419.463z"/>
<path fill="#503310" d="M328.211,333.173c0.747,0.306,0.796,0.816,0.813,1.539c-1.773,10.172-4.014,19.983-10.302,28.306
	c-0.613,0.812-1.286,1.578-2.075,2.498c-0.382,0.002-0.692-0.074-0.845-0.272c-0.549-0.715,0.319-2.371-1.331-2.3
	c-1.516,0.065-1.479,1.718-2.046,2.657c-0.484,0.802-0.32,1.971-0.578,2.941c-0.222,0.84-0.937,1.075-1.763,1.004
	c-0.479-0.041-0.958-0.113-1.071-0.67c-0.157-0.777,0.341-1.234,0.948-1.52c2.078-0.977,0.775-3.324,2.141-4.85
	c2.741-3.064,4.927-6.625,7.364-9.964c0.404-0.554,0.764-1.059,0.217-1.874c-0.757-0.727-0.434-1.333-0.087-1.88
	c2.938-4.637,5.495-9.468,7.542-14.566C327.312,333.788,327.583,333.409,328.211,333.173z"/>
<path fill="#513616" d="M165.075,450.908c-3.673-0.726-4.569-1.815-4.55-5.253c0.015-2.591,0.993-5.094,0.676-7.719
	c-0.11-0.91,0.325-1.29,1.29-1.318c2.711-0.078,6.395,3.425,6.916,6.671C170.031,447.166,168.53,449.941,165.075,450.908z"/>
<path fill="#513616" d="M134.781,447.812c-0.445,2.502-1.302,4.45-4.021,4.37c-1.94-0.057-3.736-2.64-3.838-5.128
	c-0.167-4.122,2.154-6.961,4.986-9.481c1.287-1.145,2.197-0.553,2.64,0.954C135.428,441.521,135.723,444.536,134.781,447.812z"/>
<path fill="#53381A" d="M149.926,436.665c0.193-1.531,0.265-2.846,0.599-4.09c0.792-2.95,2.433-3.468,4.913-1.657
	c3.297,2.408,4.218,8.54,1.739,11.871c-1.215,1.634-2.735,1.371-4.157,0.353C150.915,441.634,149.878,439.526,149.926,436.665z"/>
<path fill="#513616" d="M146.888,436.892c-0.945,2.893-2.37,5.198-4.431,7.184c-1.597,1.539-2.675,1.331-3.685-0.49
	c-1.787-3.225-0.621-8.89,2.253-11.188c1.311-1.048,2.831-1.188,4.186-0.571C147.276,432.769,147.112,434.781,146.888,436.892z"/>
<path fill="#503310" d="M345.735,402.896c-1.686-0.221-1.523-1.621-1.612-2.911c-0.31-4.532-3.277-7.833-7.693-8.683
	c-1.176-0.227-2.33-0.616-3.455-1.035c-0.737-0.275-1.175-0.387-1.932,0.255c-1.691,1.433-2.924,0.872-3.607-1.292
	c-1.504-4.761-3.895-9.053-6.664-13.205c-1.521-2.281-2.892-4.615-4.832-6.597c-0.611-0.624-0.669-1.726,0.317-2.597
	c4.642,6.662,9.262,13.294,12.489,20.75c0.369,0.854,0.689,1.727,1.978,1.486C339.937,387.343,346.547,395,345.735,402.896z"/>
<path fill="#543D23" d="M192.879,302.552c0.251-0.262,0.351-0.415,0.578-0.629c0.922-0.967,1.985-1.596,2.834-2.707
	c1.535-1.019,3.101-1.303,4.98-1.223c0.343,1.516-0.995,1.888-1.816,2.651c-1.394,1.296-2.773,2.604-4.121,4.21
	c-1.891,1.566-3.19,3.413-4.742,5.268c-0.165,0.241-0.229,0.337-0.389,0.574c-0.223,0.324-0.346,0.509-0.551,0.835
	c-0.149,0.227-0.215,0.314-0.405,0.505c-0.326,0.19-0.536,0.23-0.905,0.166c-1.923-0.57-4.377,1.542-4.821,3.963
	c-0.535,2.914-2.176,4.473-5.053,4.518c2.905-5.69,7.186-10.392,11.733-15.141C190.677,304.074,191.71,303.375,192.879,302.552z"/>
<path fill="#543513" d="M291.92,266.124c-1.598,1.391-3.101-0.154-4.226-0.808c-5.585-3.247-11.415-6.093-16.696-9.851
	c-0.279-0.198-0.45-0.55-0.69-1.027C277.442,258.167,284.596,262.092,291.92,266.124z"/>
<path fill="#543D23" d="M166.158,348.502c1.398,1.646,0.252,3.492-0.062,5.194c-0.991,5.396,0.039,10.724,0.074,16.078
	c0.006,0.924-0.094,1.849-0.293,2.947c-1.485-6.421-1.223-13.052-0.548-19.686C165.479,351.575,165.788,350.13,166.158,348.502z"/>
<path fill="#543D23" d="M178.069,320.776c0.396,2.229-0.633,4.457-1.887,5.998c-2.647,3.254-4.122,7.037-6.008,10.645
	c-0.156,0.299-0.501,0.5-0.951,0.783C171.081,331.988,174.313,326.341,178.069,320.776z"/>
<path fill="#543513" d="M265.117,251.333c-0.725,1.159-1.486,0.263-2.049-0.118c-3.445-2.329-6.637-1.508-9.165,1.198
	c-1.416,1.515-2.903,1.647-4.833,1.835c2.494-2.288,5.771-3.693,8.705-5.639c1.158-0.769,2.076-0.33,3.081,0.269
	C262.214,249.686,263.615,250.421,265.117,251.333z"/>
<path fill="#51361B" d="M233.577,411.378c-0.063-0.868,0.55-0.962,1.245-0.962c5.108,0.01,10.218,0.004,15.326,0.036
	c0.319,0.002,0.636,0.295,1.03,0.655C245.448,411.352,239.642,411.393,233.577,411.378z"/>
<path fill="#4C2F0F" d="M339.339,410.839c-0.177-0.403-0.149-1.044-0.011-1.069c3.038-0.549,6.057-1.96,9.229-0.14
	c-0.694,0.713-1.628,0.419-2.582,0.831C343.775,411.35,341.668,410.865,339.339,410.839z"/>
<path fill="#51361B" d="M208.41,410.953c4.924-0.848,10.1-0.869,15.351,0.154C218.772,411.603,213.72,411.19,208.41,410.953z"/>
<path fill="#543513" d="M299.638,259.251c0.306,0.701,0.394,1.571-0.292,1.976c-2.204,1.303-3.493,3.711-6.08,4.768
	C294.715,263.305,296.872,261.099,299.638,259.251z"/>
<path fill="#51361B" d="M283.931,411.336c-0.036-0.857,0.587-0.93,1.268-0.92c4.601,0.061,9.202,0.116,13.979,0.324
	C294.297,411.058,289.24,411.227,283.931,411.336z"/>
<path fill="#543D23" d="M166.322,378.164c2.176,2.1,2.183,4.955,2.06,8.099C167.161,383.941,166.797,381.145,166.322,378.164z"/>
<path fill="#51361B" d="M188.253,410.859c2.23-1.869,4.853-1.102,7.536-0.253C193.408,410.848,190.959,410.881,188.253,410.859z"/>
<path fill="#543D23" d="M170.698,394.385c3.557,0.027,1.722,2.785,2.162,4.727C171.683,397.977,171.103,396.327,170.698,394.385z"/>
<path fill="#543513" d="M247.638,254.774c-0.639,2.444-2.625,3.207-5.203,3.4C243.666,256.59,245.709,255.947,247.638,254.774z"/>
<path fill="#543D23" d="M144.683,403.836c-1.696,1.896-3.981,0.732-6.295,0.615C140.262,403.744,142.349,403.791,144.683,403.836z"
	/>
<path fill="#543D23" d="M168.12,340.801c-0.068,1.667,1.399,3.839-1.192,5.227C166.645,344.232,167.598,342.663,168.12,340.801z"/>
<path fill="#543D23" d="M172.957,399.977c3.017,1.264,3.319,2.135,1.144,3.671C174.264,402.307,173.426,401.293,172.957,399.977z"/>
<path fill="#51361B" d="M197.201,410.864c1.46-1.826,3.351-1.144,5.306-0.247C200.865,410.854,199.158,410.885,197.201,410.864z"/>
<path fill="#D6CABE" d="M192.825,302.412c-0.301,1.232-1.175,2.122-2.354,2.923c-0.389-0.024-0.618-0.082-1.196-0.208
	C190.055,304.023,190.938,302.65,192.825,302.412z"/>
<path fill="#543513" d="M238.747,260.024c-0.369,2.047-1.955,2.59-4.065,2.671C235.616,261.48,237.196,260.936,238.747,260.024z"/>
<path fill="#51361B" d="M226.29,411.379c1.081-1.668,2.605-1.045,4.194-0.252C229.213,411.357,227.874,411.396,226.29,411.379z"/>
<path fill="#543D23" d="M157.031,403.473c-0.836,1.35-2.155,0.698-3.545,0.434C154.5,403.643,155.657,403.521,157.031,403.473z"/>
<path fill="#543D23" d="M168.862,388.74c1.793,0.068,1.217,1.293,0.923,2.482C169.385,390.547,169.117,389.736,168.862,388.74z"/>
<path fill="#51361B" d="M357.191,410.258c0.387-1.483,1.408-1,2.522-0.473C359.019,410.066,358.207,410.188,357.191,410.258z"/>
<path fill="#543513" d="M242.043,258.161c0.027,1.552-1.161,1.615-2.564,1.67C239.899,258.915,240.938,258.65,242.043,258.161z"/>
<path fill="#51361B" d="M345.996,410.546c0.388-1.079,1.388-0.556,2.412-0.695c0.2-0.003,0.479,0,0.618,0.001
	c0.14,0,0.142,0.228,0.142,0.342C348.179,410.404,347.189,410.502,345.996,410.546z"/>
<path fill="#51361B" d="M363.392,409.808c0.671-0.834,1.72-0.499,2.899-0.31C365.512,409.684,364.57,409.766,363.392,409.808z"/>
<path fill="#543D23" d="M165.824,375.315c0.926,0.049,1.068,0.571,0.537,1.417C165.779,376.488,165.769,375.991,165.824,375.315z"/>
<path fill="#543513" d="M234.273,262.716c0.129,0.859-0.41,1.12-1.398,1.062C233.143,263.422,233.618,263.077,234.273,262.716z"/>
<path fill="#51361B" d="M371.212,409.309c0.529-0.863,1.51-0.5,2.654-0.521C373.309,409.437,372.347,409.268,371.212,409.309z"/>
<path fill="#543513" d="M268.121,252.95c-0.578,0.176-1.334,0.411-1.736-0.679C266.904,252.309,267.461,252.552,268.121,252.95z"/>
<path fill="#543D23" d="M169.711,404.242c-0.163-0.145-0.17-0.293-0.185-0.553c0.292-0.112,0.587-0.112,1.007-0.023
	C170.397,403.916,170.135,404.076,169.711,404.242z"/>
<path fill="#503310" d="M377,404.218c-0.136,0.542-0.451,0.69-0.922,0.128C376.306,404.201,376.59,404.171,377,404.218z"/>
<path fill="#543D23" d="M168.682,339.094c0.109,0.116,0.072,0.344-0.094,0.694C168.485,339.675,168.511,339.44,168.682,339.094z"/>
<path fill="#543513" d="M269.179,253.57c-0.131,0.121-0.296,0.047-0.508-0.203C268.769,253.313,268.943,253.375,269.179,253.57z"/>
<path fill="#E78F28" d="M328.436,332.945c-2.432,6.173-5.225,11.911-8.873,17.408c-4.135,5.431-7.818,11.011-12.509,15.791
	c-0.894,0.91-1.58,2.023-2.928,2.817c1.668-9.585,1.042-18.598-3.433-27.288c-0.292-0.24-0.412-0.375-0.534-0.509
	c-0.264-0.286-0.195-0.778-0.607-0.968c0.254,0.293,0.297,0.65,0.298,1.205c0.895,6.954,1.364,13.719-0.264,20.45
	c-2.842,11.746-10.523,19.635-20.51,25.679c-5.195,3.144-10.562,5.965-16.387,7.722c-2.191,0.661-2.832,1.763-2.331,3.833
	c0.373,1.541,0.559,3.102,0.358,4.719c-3.167-1.988-4.436-17.637-2.655-28.031c1.626-9.49,5.058-18.323,9.798-26.745
	c-1.727-0.546-2.323,0.815-3.057,1.612c-5.366,5.823-9.471,12.439-11.899,19.997c-0.538,1.672-1.399,2.332-3.014,2.677
	c-5.688,1.216-11.438,1.415-17.223,1.454c-2.333,0.016-2.43-0.764-1.568-2.632c4.191-9.086,4.794-18.281,0.517-27.536
	c-2.421-5.235-5.954-9.649-10.322-13.651c-1.123-0.54-1.714-1.41-2.54-2.221c-0.147-0.139-0.13-0.258-0.14-0.116
	c0.591,0.966,1.203,1.749,1.642,2.853c3.529,6.562,6.032,13.182,5.859,20.625c-0.202,8.686-3.56,16.108-8.89,22.712
	c-6.97,8.637-15.251,15.803-24.958,21.236c-2.059,1.152-2.472,2.575-1.552,4.607c0.438,0.969,1.396,2.127-0.219,2.809
	c-1.38,0.582-1.954-0.65-2.539-1.597c-4.444-7.188-7.566-14.955-9.848-23.054c-5.436-19.303-3.982-38.126,4.264-56.402
	c1.532-3.396,3.391-6.631,5.765-9.779c0.31-0.313,0.509-0.431,0.848-0.636c0.109-0.138,0.12-0.082,0.092-0.083
	c0.297-0.19,0.334-0.532,0.504-0.993c0.084-0.145,0.098-0.104,0.078-0.113c2.324-2.026,4.137-4.57,6.657-6.712
	c14.986-11.049,31.063-12.621,48.349-6.479c2.437,0.966,4.247,2.708,6.803,3.317c0.436-0.05,0.686-0.046,1.113,0.041
	c0.342,0.156,0.467,0.288,0.554,0.451c0.087,0.162,0.082,0.097-0.109-0.363c-0.686-1.09-1.288-2.008-0.622-3.317
	c0.849-0.492,1.601-0.567,2.34-0.519c10.977,0.719,20.313-3.684,29.251-9.337c0.157-0.099,0.318-0.193,0.688-0.37
	c0.793-0.262,1.378-0.267,2.15,0.019c1.132,1.531,0.38,3.085,0.048,4.348c-0.796,3.022-0.111,5.798,0.455,9.04
	c0.368-1.554,0.393-2.792,1.273-3.949c0.322-0.577,0.513-1.011,0.719-1.623c2.271-5.678,5.559-10.306,10.739-13.4
	c-1.128-1.352-2.842-2.763-2.88-5.34c0.491-1.716,1.155-3.129,1.94-4.506c5.75-10.081,18.946-8.479,23.044,1.362
	c0.051,1.797,0.788,2.201,2.353,2.005c8.051-1.01,16.805,3.991,20.451,11.711c0.093,0.191-0.004,0.426,0.122,0.436
	c0.212,0.301,0.298,0.593,0.473,1.093c0.98,3.79,3.891,2.775,6.492,2.944c1.377,0.117,2.322,0.703,3.071,1.543
	c1.673,1.875,3.799,3.208,5.753,5.039c-0.526,7.185-4.619,12.067-9.7,16.363c-2.718,2.297-5.927,3.775-9.161,5.585
	c-0.693,0.845-1.632,0.728-2.573,1.22c1.302,0.393,2.473,0.431,3.597,0.679c1.876,0.414,1.125,1.17-0.039,1.953
	c-6.156,2.263-12.128,4.496-19.322,4.212C325.663,329.987,329.675,328.793,328.436,332.945z"/>
<path fill="#F8F7F6" d="M229.366,394.19c-3.685-2.938-7.611-4.523-12.564-4.371c2.516-2.652,5.017-5.319,7.562-7.943
	c0.454-0.469,1.105-0.735,1.785-0.342c0.701,0.405,1.25,1.066,0.957,1.833c-0.821,2.154,0.511,3.014,2.04,3.928
	c4.701,2.812,7.984,6.929,10.405,11.75c0.534,1.063,2.073,2.41,0.325,3.551c-1.545,1.008-4.89-0.038-5.51-1.553
	C233.283,398.4,231.649,396.192,229.366,394.19z"/>
<path fill="#F7F6F5" d="M289.222,390.215c3.677-2.79,3.665-2.78,6.448,0.604c2.506,3.047,4.258,6.539,5.887,10.087
	c0.366,0.797,1.152,2.028-0.013,2.72c-0.977,0.58-2.021-0.161-2.74-0.881c-0.846-0.846-1.523-1.863-2.258-2.817
	c-2.38-3.089-4.95-5.851-9.316-5.702c-0.548,0.02-1.192,0.027-1.368-0.66c-0.161-0.627,0.3-1.043,0.739-1.391
	C287.404,391.539,288.232,390.938,289.222,390.215z"/>
<path fill="#814C11" d="M218.225,328.361c1.326,0.105,2.08,1.101,2.863,2.304c-0.146,0.335-0.348,0.494-0.653,0.816
	C219.218,330.893,218.5,329.874,218.225,328.361z"/>
<path fill="#814C11" d="M300.019,341.584c-0.865-0.861-1.359-1.776-0.955-3.001c0.993,0.626,1.235,1.59,1.489,2.751
	C300.44,341.547,300.321,341.563,300.019,341.584z"/>
<path fill="#CA9E70" d="M188.935,311.866c-0.021,0.177-0.202,0.37-0.52,0.588c-0.137,0.025-0.201-0.137-0.212-0.223
	C188.387,312.058,188.581,311.97,188.935,311.866z"/>
<path fill="#51330C" d="M299.841,259.259c0.04,0.025-0.016-0.051-0.107,0.119c-2.024,2.583-4.421,4.523-6.838,6.625
	c-0.381,0.083-0.593,0.154-0.993,0.273c-3.688-0.996-6.667-3.122-9.814-4.838c-4.035-2.199-8.123-4.381-11.878-7.334
	c-0.375-0.226-0.672-0.313-1.084-0.465c-0.256-0.17-0.395-0.276-0.608-0.461c-0.077-0.076-0.294-0.072-0.468-0.123
	c-0.736-0.277-1.286-0.523-1.797-1.125c-0.4-0.242-0.708-0.346-1.228-0.46c-0.878-0.127-1.381-0.567-1.949-0.879
	c-2.798-1.533-5.413-2.133-8.188,0.366c-1.683,1.515-3.724,2.769-6.21,3.274c-0.383,0.167-0.613,0.334-0.949,0.668
	c-1.643,1.663-3.611,2.406-5.491,3.28c0.026,0.022-0.001-0.04-0.115,0.116c-0.905,0.865-1.871,1.221-2.972,1.519
	c-0.104,0.002-0.217,0.179-0.359,0.304c-1.223,1.477-2.879,1.847-4.33,2.573c-0.006-0.002-0.008,0.009-0.133,0.131
	c-0.575,0.513-1.145,0.679-1.854,0.97c-10.06,5.987-19.922,11.957-29.802,17.898c-0.576,0.347-1.06,1.306-1.884,0.742
	c-0.706-0.483-0.367-1.383-0.369-2.096c-0.02-6.522-0.063-13.046,0.027-19.567c0.026-1.913-0.536-2.627-2.535-2.592
	c-6.241,0.108-12.487,0.135-18.728-0.009c-2.198-0.05-2.862,0.565-2.845,2.796c0.098,12.113-0.002,24.227,0.074,36.339
	c0.012,1.931-0.641,3.088-2.271,4.045c-8.5,4.987-16.938,10.08-25.444,15.057c-1.284,0.751-1.938,1.64-1.94,3.084
	c-0.005,6.056,0.031,12.112-0.061,18.167c-0.027,1.786,0.703,2.247,2.332,2.17c2.325-0.109,4.683-0.272,6.981-0.016
	c4.604,0.512,7.996-0.483,8.763-5.741c0.103-0.7,0.595-1.356,0.957-2.004c1.688-3.016,3.395-6.021,5.146-9.124
	c-0.929-0.385-1.397,0.041-1.918,0.123c-0.841,0.132-1.879,1.221-2.491,0.126c-0.617-1.106,0.729-1.526,1.42-2.019
	c7.197-5.13,14.108-10.632,21.215-16.159c1.544-0.592,2.531-1.791,4.104-2.352c0.345-0.26,0.52-0.432,0.785-0.77
	c0.721-1.229,1.712-1.858,2.948-2.461c1.416-0.538,2.731-0.74,4.203-1.065c0.276-0.127,0.382-0.188,0.633-0.357
	c0.626-0.516,1.242-0.584,1.985-0.842c1.919-0.924,3.762-1.603,5.396-3.035c1.283-1.625,2.903-1.733,4.781-1.675
	c0.594-0.055,0.992-0.106,1.578-0.255c0.462-0.119,0.728-0.185,1.194-0.307c0.613-0.167,1.021-0.297,1.582-0.618
	c1.154-0.525,2.205-0.243,3.187-0.433c2.908-0.565,5.859,0.38,8.924-0.437c0.808-1.04,0.673-2.106-0.177-2.542
	c-1.959-1.005-1.312-2.454-1.058-4.095c-0.305-0.261-0.525-0.507-0.689-0.741c-0.183-0.15-0.322-0.35-0.381-0.642
	c-0.195-0.966,0.498-1.555,1.252-2.005c0.103-0.074,0.207-0.147,0.313-0.218c1.173-0.784,2.404-1.472,3.664-2.133
	c1.196-0.727,2.406-1.428,3.697-1.983c0.426-0.183,0.855-0.347,1.396-0.749c0.212-0.056,0.104-0.01,0.162-0.017
	c0.689-0.936,1.651-1.432,2.659-1.911c0.242-0.135,0.493-0.253,0.75-0.358c0.426-0.207,0.85-0.43,1.256-0.698
	c5.151-2.729,10.106-5.442,15.167-8.316c0.316-0.359,0.565-0.449,1.034-0.329c0.801,0.493,1.42,0.884,2.223,1.291
	c1.388,0.107,2.333,0.766,3.382,1.591c0.107,0.16,0.142,0.089,0.111,0.114c0.284,0.166,0.625,0.229,1.041,0.5
	c0.34,0.299,0.584,0.454,0.982,0.612c0.321,0.066,0.473,0.158,0.721,0.347c0.113,0.071,0.321,0.199,0.443,0.205
	c1.003,0.453,1.959,0.751,2.903,1.473c0.87,0.518,1.595,0.919,2.499,1.346c0.39,0.046,0.578,0.122,0.863,0.353
	c0.121,0.099,0.271,0.249,0.377,0.235c0.808,0.301,1.595,0.397,2.354,0.988c0.102,0.165,0.151,0.085,0.114,0.114
	c1.601,0.803,3.429,1.197,4.972,2.585c0.395,0.336,0.646,0.538,1.063,0.762c0.51-0.013,0.824,0.063,1.21,0.405
	c0.106,0.128,0.22,0.248,0.295,0.215c0.323-0.022,0.533,0.073,0.801,0.398c0.1,0.337,0.18,0.479,0.451,0.612
	c0.24,0.307,0.356,0.575,0.399,0.815c0.44,0.462,0.692,0.959,1.325,1.283c1.23,0.261,1.92,0.955,2.631,1.915
	c0.432,0.382,0.731,0.644,1.103,1.018c-0.114,0.405-0.404,0.15-0.813,0.24c-0.538,0.182-0.822,0.436-1.16,0.924
	c-0.526,0.746-0.928,1.332-1.173,2.247c-1.493,2.568-1.952,5.213-2.163,7.888c-0.113,1.442-0.298,3.192,2.292,2.946
	c0.696-0.492,0.97-1.003,1.057-1.838c0.789-2.759,1.142-5.353,3.613-7.235c1.596-1.215,3.092-2.882,4.188-4.712
	c1.196-1.999,0.909-3.211-1.036-3.959c-0.355,0.129-0.4,0.513-0.688,0.313c0.199-0.256,0.492-0.39,0.866-0.72
	c0.376-0.881,0.164-1.649,0.291-2.58c-0.036-0.443-0.101-0.688-0.294-1.086c-0.853-1.515-0.681-2.769,0.405-4.099
	c0.602-0.942,1.049-1.741,0.971-2.907c0.445-2.506,1.761-3.979,4.338-4.44c0.745-0.199,1.247-0.444,1.829-0.982
	c0.34-0.394,0.493-0.651,0.67-1.152c0.075-0.376,0.091-0.53,0.091-0.918C303.921,257.447,301.74,258.827,299.841,259.259z"/>
<path fill="#533817" d="M253.348,288.689c5.763,1.708,10.972,0.196,16.098-2.128c4.953-2.247,9.945-4.409,14.886-6.684
	c0.761-0.35,1.879-0.458,2.033-1.842c0.87-0.235,1.245,0.205,1.239,1.234c-0.895,2.287-2.914,2.852-4.723,3.707
	c-0.874,0.413-2.27,0.404-2.264,1.673c0.007,1.51,1.555,1.259,2.51,1.653c0.17,0.07,0.333,0.155,0.595,0.429
	c0.002,1.153-0.787,1.586-1.515,1.931c-6.374,3.025-12.647,6.289-19.752,7.426c-4.663,0.747-9.012-0.597-13.677-1.656
	c0.789,1.604,2.561,1.851,3.445,3.287c0.426,1.287,0.786,2.379,1.125,3.699c-0.368,0.152-0.714,0.075-1.318-0.052
	c-2.101-0.463-3.201-2.064-4.962-2.975c-1.933-1.719-4.604-2.009-5.97-4.301c1.935-0.709,3.603-1.505,5.101-2.842
	c1.386-1.237,3.096-1.698,4.763-0.189c0.731,0.662,1.598,1.797,2.567,1.092c0.916-0.667-0.464-1.605-0.433-2.502
	C253.106,289.37,253.116,289.097,253.348,288.689z"/>
<path fill="#F6F3EF" d="M240.94,293.921c2.126,1.356,4.178,2.537,6.355,3.865c-0.078,1.499-1.115,0.835-2.019,0.796
	c-16.688-6.181-32.429-5.238-47.165,4.945c-0.459,0.317-0.914,0.641-1.524,1.075c-0.569,0.337-1.002,0.469-1.67,0.209
	c1.353-2.924,4.037-4.53,6.494-6.632c0.095-0.161,0.071-0.177,0.077-0.166c0.315-0.548,0.902-0.715,1.571-1.067
	c1.893-0.947,3.628-1.813,5.508-2.813c1.556-1.468,3.357-1.853,5.385-2.169c0.538,0.026,0.866,0.021,1.335-0.085
	c0.317-0.284,0.52-0.432,0.931-0.517c0.509,0.047,0.831,0.062,1.302,0.004c2.786-1.309,5.609-0.515,8.337-0.768
	c1.169-0.108,2.405,0.039,3.86,0.068c1.049-0.019,1.84-0.257,2.873-0.065c0.511,0.101,0.792,0.18,1.267,0.339
	c1.912,0.7,3.651,1.262,5.57,1.894c0.419,0.164,0.646,0.281,1.021,0.524C240.69,293.562,240.778,293.653,240.94,293.921z"/>
<path fill="#4C2F0F" d="M239.958,293.575c-2.002-0.536-3.853-1.052-5.884-1.676c-0.354-0.308-0.56-0.466-0.985-0.523
	c-0.855,0.021-1.524-0.018-2.369-0.157c-0.372-0.29-0.462-0.519-0.311-0.947c0.182-1.125,0.028-2.067-1.021-2.383
	c-2.724-0.821-1.789-2.151-0.549-3.753c1.896-1.382,3.876-0.049,6.034-0.329c1.218,0.187,2.244-0.067,3.304,0.685
	c4.552,1.954,9.229,2.698,13.983,3.906c0.457,0.016,0.705,0.032,1.133,0.097c0.172,0.707,0.313,1.288,0.696,1.868
	c0.518,0.784,1.64,1.649,0.624,2.627c-1.101,1.059-2.396,0.135-3.271-0.458c-3.26-2.208-3.595-2.312-6.262,0.742
	c-1.113,1.274-2.399,0.461-3.816,0.8c-0.251,0.023-0.484,0.028-0.575-0.046C240.442,293.825,240.279,293.706,239.958,293.575z"/>
<path fill="#F6F3EF" d="M322.398,273.585c-0.705-0.557-1.275-1.171-1.728-1.863c-2.928-4.486-7.097-6.442-12.345-5.72
	c-5.035,0.693-7.754,4.286-9.79,8.542c-0.276,0.578-0.534,1.165-0.856,1.939c-0.226,0.384-0.429,0.443-0.736,0.185
	c-0.16-0.38-0.254-0.595-0.449-0.956c-0.669-1.491-0.602-2.848-0.019-4.424c0.516-1.005,0.88-1.798,1.271-2.779
	c0.452-2.686,2.374-3.883,4.48-5.13c0.595-0.192,0.995-0.345,1.505-0.617c0.249-0.245,0.397-0.354,0.692-0.47
	c0.138-0.019,0.151-0.029,0.154-0.02c8.582-2.396,15.249,0.704,17.953,8.342C322.873,271.582,323.34,272.517,322.398,273.585z"/>
<path fill="#523209" d="M283.807,286.831c-0.8-0.091-1.448-0.093-2.096-0.086c-1.405,0.015-1.998-1.114-2.235-2.091
	c-0.247-1.018,0.778-1.575,1.716-1.813c2.286-0.58,4.247-1.755,6.245-3.281c1.658-0.214,3.052-0.181,3.439,1.936
	c0.328,0.67,0.017,0.883-0.531,1.115c-1.483-0.045-2.144,0.777-2.763,1.947c-0.297,0.471-0.563,0.715-1.057,0.959
	c-0.487,0.188-0.818,0.291-1.231,0.611C284.817,286.564,284.46,286.87,283.807,286.831z"/>
<path fill="#5B3409" d="M296.702,276.601c0.355-0.154,0.522-0.125,0.797,0.032c0.37,2.883,2.733,4.307,4.773,6.624
	c-4.813-1.18-6.195,2.567-8.288,4.934c-1.752,1.982-2.92,4.481-4.494,6.865c0.62-2.048-0.51-4.605,2.271-6.439
	c2.263-1.492,4.211-3.848,5.601-6.377c0.466-0.85,0.791-1.948-0.593-2.728c-0.274-0.129-0.346-0.218-0.314-0.445
	C296.711,278.183,295.702,277.453,296.702,276.601z"/>
<path fill="#5B3409" d="M288.512,296.817c-0.096,1.889-0.42,3.769-0.777,5.842c-2.433-3.485-2.054-9.065-0.547-14.708
	c-0.161-1.24,0.477-1.852,1.271-2.537c0.304-0.052,0.429-0.042,0.693,0.097c-0.037,2.864-2.211,5.068-1.973,7.894
	C287.28,294.597,286.066,296.286,288.512,296.817z"/>
<path fill="#533817" d="M234.972,283.737c-1.764,0.186-3.68,0.199-5.854,0.21c-2.589-1.066-2.644-2.541-0.047-4.204
	c2.859-1.831,5.778-3.65,9.345-4.523c-3.298,2.28-6.812,4.543-11.042,7.266C230.408,282.926,232.615,283.245,234.972,283.737z"/>
<path fill="#533817" d="M230.281,290.115c0.253,0.225,0.259,0.447,0.263,0.837c-4.123,0.032-8.248-0.273-12.614,0.38
	c-0.063-1.585,1.144-1.199,2.075-1.208C223.348,290.093,226.691,290.113,230.281,290.115z"/>
<path fill="#624626" d="M192.773,288.785c-2.19-1.123-4.515,1.009-7.072-1.133c3.297-0.551,6.149-0.358,8.991-0.184
	c0.388,0.024,0.499,0.823,0.455,0.819C194.298,288.21,193.93,289.832,192.773,288.785z"/>
<path fill="#543513" d="M302.197,263.316c-1.265,1.579-3.099,2.823-4.265,4.909C297.07,266.238,299.028,263.896,302.197,263.316z"/>
<path fill="#533817" d="M289.38,285.497c-0.09,0.142-0.357,0.143-0.491,0.144c-0.213-0.059-0.293-0.118-0.501-0.25
	c-0.215-0.119-0.303-0.164-0.522-0.272c-0.313-0.146-0.479-0.248-0.724-0.487c0.271-1.48,0.823-2.645,2.63-2.416
	c0.389,0.576,0.269,1.105,0.554,1.709C290.42,284.731,289.898,285.007,289.38,285.497z"/>
<path fill="#533817" d="M243.344,272.144c-1.376,1.115-2.854,2.079-4.517,3.085C239.094,272.662,241.473,272.755,243.344,272.144z"
	/>
<path fill="#624626" d="M182.622,289.159c-0.295-0.42-0.422-0.785-0.678-0.992c-0.603-0.489-0.575,1.453-1.112,0.426
	c-0.401-0.765,0.368-1.288,1.269-1.276c1.196,0.015,2.396,0.002,3.33,1.778C184.2,288.379,183.568,289.204,182.622,289.159z"/>
<path fill="#533817" d="M282.556,275.353c-1.798-0.231-3.31-1.304-5.026-2.329C279.402,273.017,281.38,273.167,282.556,275.353z"/>
<path fill="#533817" d="M213.906,291.932c-1.424,0.723-3.104,1.383-4.988,2.056C209.656,291.663,211.612,291.672,213.906,291.932z"
	/>
<path fill="#533817" d="M296.433,271.169c0.139,1.238,0.086,2.571-0.004,4.15C294.66,274.191,295.207,272.736,296.433,271.169z"/>
<path fill="#533817" d="M296.341,278.926c0.217,0.002,0.222,0.273,0.224,0.409c-0.074,0.816,0.146,1.714-0.97,1.71
	c-0.603-0.002-1.061-0.411-1.125-0.987C294.321,278.735,295.358,278.996,296.341,278.926z"/>
<path fill="#7B6C5A" d="M290.523,283.93c-1.013,0.039-1.551-0.271-0.744-1.408c0.392-0.292,0.694-0.427,1.09-0.701
	c0.616-0.114,1.21-0.196,1.195,0.805c-0.083,0.313-0.146,0.429-0.388,0.62C291.201,283.478,290.906,283.632,290.523,283.93z"/>
<path fill="#533817" d="M265.159,266.511c-1.022-0.283-2.047-0.764-3.188-1.391C263.478,264.136,264.302,265.262,265.159,266.511z"
	/>
<path fill="#7B6C5A" d="M196.23,299.149c-0.087,1.327-1.015,2.135-2.453,2.688C193.652,300.275,195.005,299.891,196.23,299.149z"/>
<path fill="#533817" d="M271.362,269.719c-0.873-0.222-1.786-0.64-2.792-1.223C269.62,268.259,270.674,268.409,271.362,269.719z"/>
<path fill="#533817" d="M277.443,272.664c-0.701-0.061-1.411-0.343-2.231-0.786C275.935,271.777,276.958,271.226,277.443,272.664z"
	/>
<path fill="#533817" d="M291.582,283.462c-0.028-0.308,0.075-0.44,0.342-0.588c0.439,0.023,1.004-0.073,0.847,0.458
	C292.623,283.83,292.153,283.978,291.582,283.462z"/>
<path fill="#543D23" d="M203.007,296.854c-0.247,0.375-0.703,0.739-1.336,1.137C201.468,297.121,201.983,296.816,203.007,296.854z"
	/>
<path fill="#533817" d="M284.797,276.543c-0.31,0.101-0.637,0.031-1.049-0.189C284.145,275.536,284.514,275.612,284.797,276.543z"/>
<path fill="#533817" d="M259.543,263.646c-0.158,0.141-0.404,0.162-0.836,0.185C258.732,263.423,259.015,263.235,259.543,263.646z"
	/>
<path fill="#533817" d="M266.227,267.136c-0.254,0.062-0.583-0.044-1.002-0.3C265.474,266.78,265.813,266.874,266.227,267.136z"/>
<path fill="#533817" d="M267.939,268.079c-0.099,0.062-0.28,0.013-0.529-0.17C267.538,267.772,267.709,267.836,267.939,268.079z"/>
<path fill="#533817" d="M274.64,271.468c-0.107,0.078-0.314,0.028-0.614-0.161C274.136,271.227,274.339,271.284,274.64,271.468z"/>
<path fill="#543513" d="M304.414,262.271c0.005,0.126-0.136,0.25-0.425,0.372C303.985,262.517,304.127,262.392,304.414,262.271z"/>
<path fill="#533817" d="M285.812,277.194c-0.132,0.069-0.345-0.023-0.645-0.271C285.296,276.856,285.513,276.945,285.812,277.194z"
	/>
<path fill="#533817" d="M216.216,291.378c-0.013,0.149-0.214,0.283-0.602,0.408C215.628,291.639,215.828,291.5,216.216,291.378z"/>
<path fill="#543613" d="M422.146,466.238c-0.187-0.81-0.343-1.641-0.381-2.468c-0.289-6.201-0.911-12.233-7.47-15.246
	c0.666-1.361,1.808-1.471,2.646-1.988c2.58-1.593,3.929-3.931,4.283-6.845c0.826-6.807-3.147-12.203-9.85-13.717
	c-6.371-1.438-12.795-0.756-19.467-0.715c-2.2-0.25-2.494,0.778-2.486,2.472c0.058,12.113,0.019,24.227,0.021,36.339
	c0.001,5.893,0.01,5.811,5.911,5.737c1.913-0.024,2.414-0.75,2.343-2.487c-0.103-2.512-0.047-5.03-0.056-7.546
	c-0.03-9.057-0.029-9.057,9.052-7.63c3.721,0.584,5.726,2.735,5.979,6.472c0.127,1.858,0.115,3.729,0.297,5.58
	c0.442,4.525,1.609,5.527,6.24,5.528C422.963,469.727,422.952,469.729,422.146,466.238z M413.126,439.393
	c-0.314,3.355-2.576,5.525-6.018,5.742c-1.854,0.116-3.715,0.31-5.567,0.264c-3.849-0.095-3.847-0.15-3.844-4.24
	c-0.001-2.601,0.062-4.928-0.021-7.249c-0.058-1.648,0.539-2.439,2.25-2.332c2.771,0.173,5.572-0.32,8.322,0.433
	C411.688,432.952,413.479,435.626,413.126,439.393z"/>
<path fill="#F7F6F5" d="M361.117,298.317c-3.439-1.208-5.416-4.252-8.512-6.114c-1.464-0.288-2.734-0.083-3.996-0.146
	c-1.731-0.087-2.506-0.873-1.806-2.836c3.681-0.217,7.21-0.244,10.739-0.259c0.852-0.004,1.702,0.231,0.91,1.234
	c-1.904,2.411-0.396,3.842,1.26,5.395C360.446,296.277,361.7,296.782,361.117,298.317z"/>
<path fill="#814C11" d="M343.051,324.139c0.068-0.462,0.353-0.9,0.688-1.418c-1.856-0.508-3.994,0.316-5.415-1.471
	c0.885-0.924,2.015-0.885,3.308-1.001c0.262,0.962,0.913,1.115,1.697,1.272c0.77,0.154,1.835,0.304,1.789,1.339
	C345.075,323.834,344.073,323.981,343.051,324.139z"/>
<path fill="#7B6C5A" d="M346.79,289.007c-0.377,2.263,0.604,3.09,2.781,2.914c0.816-0.066,1.648,0.046,2.648,0.174
	c-0.933,0.104-2.054,0.008-3.147,0.142c-2.271,0.279-3.547-0.527-3.496-3.123C345.982,288.94,346.304,288.964,346.79,289.007z"/>
<path fill="#7B6C5A" d="M345.206,287.577c0.018,0.048-0.146,0.059-0.146,0.059s-0.092-0.134-0.043-0.2
	C345.068,287.371,345.19,287.529,345.206,287.577z"/>
<path fill="#624626" d="M329.442,445.114c0.741,0.068,1.439-0.129,1.518,0.653c0.053,0.528-0.419,0.884-0.865,0.891
	c-2.843,0.042-5.688,0.021-8.54-0.341C324.044,445.285,326.761,446.128,329.442,445.114z"/>
<path fill="#523412" d="M382.73,466.767c-4.923-13.197-9.779-26.42-14.509-39.688c-0.992-2.784-3.048-1.821-4.835-1.984
	c-1.686-0.153-2.944,0.199-3.634,2.164c-4.512,12.854-9.145,25.664-13.748,38.485c-1.45,4.04-1.465,4.035,3.089,4.032
	c2.62,0.38,3.617-0.616,4.281-2.981c1.814-6.47,1.965-6.427,8.832-6.444c1.211-0.003,2.422-0.013,3.633-0.02
	c6.117-0.029,6.116-0.029,8.29,5.768c0.131,0.349,0.334,0.675,0.424,1.031c0.502,2.013,1.669,2.979,3.822,2.62
	c0.725-0.122,1.495-0.098,2.23-0.015C383.14,470.021,383.629,469.177,382.73,466.767z M367.255,454.19
	c-2.407-0.096-4.82-0.024-7.23-0.025c-0.998-0.001-2.123-0.137-1.687-1.472c1.62-4.959,3.376-9.874,5.326-15.514
	c1.019,2.355,1.759,4.068,2.577,5.985c1.012,3,1.901,5.812,2.895,8.586C369.815,453.65,369.163,454.266,367.255,454.19z"/>
<path fill="#624626" d="M317.972,358.922c0.279,0.451,0.304,0.79-0.132,0.878c-0.132,0.027-0.436-0.252-0.477-0.434
	C317.289,359.045,317.329,358.667,317.972,358.922z"/>
<path fill="#CA9E70" d="M194.615,304.828c0.539-0.143,0.966-0.139,1.605-0.124c-1.942,2.005-3.565,4.562-6.383,6.075
	C190.902,308.551,192.333,306.456,194.615,304.828z"/>
<path fill="#CA9E70" d="M189.522,310.863c0.043,0.231-0.057,0.557-0.315,0.962C189.158,311.59,189.269,311.274,189.522,310.863z"/>
<path fill="#F4F1EC" d="M283.584,286.923c0.404-0.394,0.738-0.603,1.188-0.907c0.165-0.416,0.352-0.597,0.888-0.645
	c0.729,0.031,1.456-0.11,1.409,0.677c-0.066,1.114-0.978,1.398-2.086,1.69c-8.734,6.003-17.77,10.488-28.555,9.942
	c-1.205-0.061-2.418,0.025-3.884,0.14c-2.5-0.79-4.375-2.168-6.257-4.164c1.474-0.433,2.46-0.145,3.503,0.209
	c7.687,2.607,15.161,1.862,22.53-1.352C276.126,290.853,279.847,289.042,283.584,286.923z"/>
<path fill="#5B3409" d="M334.225,297.114c-1.405-1.73-2.618-3.378-3.965-4.91c-1.088-1.238-0.67-2.07,0.589-2.585
	c2.593-1.061,5.29-0.868,7.96-0.312c0.638,0.133,1.135,0.648,1.368,1.304C340.948,292.779,336.807,297.495,334.225,297.114z"/>
<path fill="#5B3409" d="M308.201,268.866c2.221,0.387,4.214,0.747,5.743,2.875c-4.332,0.724-8.293,1.773-11.656,4.405
	c-1.07,0.837-1.134-0.298-1.204-1.019C300.776,271.926,304.251,268.115,308.201,268.866z"/>
<path fill="#CA9E70" d="M245.196,298.586c0.592-0.181,1.317,0.199,2.107-0.473c1.736,0.529,2.963,1.771,4.375,3.044
	c-0.715,1.128-1.317,0.375-2.025-0.039C248.229,300.287,246.758,299.535,245.196,298.586z"/>
<path fill="#D6CABE" d="M285.038,287.863c-0.002-0.904,1.941-0.605,1.106-2.177c-0.264-0.144-0.372-0.253-0.271-0.459
	c0.48-0.214,0.752-0.332,1.1-0.58c0.328-0.148,0.58-0.167,1.019-0.147c0.271,0.12,0.356,0.202,0.561,0.417
	c0.145,0.229,0.172,0.326,0.2,0.573c-0.467,0.757-0.936,1.364-1.495,2.095C286.536,287.764,285.906,287.816,285.038,287.863z"/>
<path fill="#814C11" d="M218.235,328.154c0.006-0.004-0.239-0.115-0.239-0.115s0.152,0.012,0.188,0.072
	C218.221,328.17,218.229,328.158,218.235,328.154z"/>
<path fill="#CA9E70" d="M253.319,301.643c0.007,0.005-0.039-0.008-0.019-0.011C253.32,301.628,253.312,301.637,253.319,301.643z"/>
<path fill="#533817" d="M252.245,288.232c-1.912,1.095-3.876-0.093-5.639-0.542c-2.732-0.694-5.776-0.837-8.198-2.908
	C243.066,285.296,247.533,286.916,252.245,288.232z"/>
<path fill="#533817" d="M239.898,293.69c0.107-0.082,0.305-0.03,0.603,0.142C240.396,293.91,240.192,293.867,239.898,293.69z"/>
<path fill="#533817" d="M233.031,291.573c0.116-0.112,0.362-0.088,0.736,0.078C233.651,291.764,233.406,291.737,233.031,291.573z"/>
<path fill="#533817" d="M244.228,289.004c-0.454,0.601-0.959,0.627-1.453,0.308c-0.263-0.169-0.257-0.48,0.009-0.644
	C243.283,288.361,243.788,288.386,244.228,289.004z"/>
<path fill="#533817" d="M285.878,285.128c0.205,0.002,0.151,0.262,0.131,0.393c-0.263,0.201-0.504,0.271-0.934,0.37
	C284.961,285.47,285.215,285.197,285.878,285.128z"/>
<path fill="#F4F1EC" d="M288.691,284.895c-0.189,0.113-0.327,0.021-0.472-0.238C288.356,284.605,288.532,284.672,288.691,284.895z"
	/>
<path fill="#7B6C5A" d="M336.03,291.253c-0.825,1.001-1.718,0.413-2.99,0.618C334.11,290.472,334.99,290.367,336.03,291.253z"/>
</svg>
